<?xml version="1.0" encoding="UTF-8"?>
<!DOCTYPE svg PUBLIC "-//W3C//DTD SVG 1.1//EN" "http://www.w3.org/Graphics/SVG/1.1/DTD/svg11.dtd">
<svg xmlns="http://www.w3.org/2000/svg" version="1.1" width="139px" height="140px" style="shape-rendering:geometricPrecision; text-rendering:geometricPrecision; image-rendering:optimizeQuality; fill-rule:evenodd; clip-rule:evenodd" xmlns:xlink="http://www.w3.org/1999/xlink">
<g><path style="opacity:1" fill="#0c0f0b" d="M 127.5,-0.5 C 131.167,-0.5 134.833,-0.5 138.5,-0.5C 138.5,1.16667 138.5,2.83333 138.5,4.5C 137.414,4.61998 136.747,5.28665 136.5,6.5C 136.747,7.71335 137.414,8.38002 138.5,8.5C 138.5,9.83333 138.5,11.1667 138.5,12.5C 137.167,12.5 135.833,12.5 134.5,12.5C 134.5,11.1667 134.5,9.83333 134.5,8.5C 131.073,8.02436 127.74,8.02436 124.5,8.5C 124.167,9.16667 123.833,9.83333 123.5,10.5C 124.853,11.5237 125.52,12.857 125.5,14.5C 124.662,14.8417 124.328,15.5084 124.5,16.5C 124.158,17.3382 123.492,17.6716 122.5,17.5C 121.058,16.1805 120.392,14.5138 120.5,12.5C 120.167,11.1667 119.833,9.83333 119.5,8.5C 121.975,7.3126 122.975,5.3126 122.5,2.5C 124.167,2.5 125.833,2.5 127.5,2.5C 127.5,1.5 127.5,0.5 127.5,-0.5 Z"/></g>
<g><path style="opacity:1" fill="#0f120e" d="M -0.5,-0.5 C 16.1667,-0.5 32.8333,-0.5 49.5,-0.5C 48.4264,0.884606 47.0931,2.05127 45.5,3C 46.5448,4.61585 47.5448,6.28251 48.5,8C 47.5842,8.27842 46.9175,8.77842 46.5,9.5C 44.9519,9.17876 44.2852,8.17876 44.5,6.5C 42.5,6.5 40.5,6.5 38.5,6.5C 38.5,7.83333 38.5,9.16667 38.5,10.5C 40.5643,10.687 42.5643,11.187 44.5,12C 43.3333,12.1667 42.1667,12.3333 41,12.5C 38.1247,10.9043 34.958,9.90434 31.5,9.5C 32.8664,7.6495 34.533,7.31617 36.5,8.5C 37.3857,7.67504 37.719,6.67504 37.5,5.5C 34.2346,5.2082 31.2346,5.87487 28.5,7.5C 25.9783,6.91125 23.4783,6.24458 21,5.5C 19.779,6.27181 18.779,7.27181 18,8.5C 16.5057,4.69593 15.6724,5.02926 15.5,9.5C 18.1873,9.33591 20.854,9.50258 23.5,10C 25.158,10.7253 25.658,11.892 25,13.5C 21.6132,17.0391 17.4466,18.3724 12.5,17.5C 12.5,15.5 12.5,13.5 12.5,11.5C 10.6785,9.14251 8.34517,8.80918 5.5,10.5C 3.99536,13.1306 3.3287,12.7973 3.5,9.5C 2.16667,9.5 0.833333,9.5 -0.5,9.5C -0.5,6.16667 -0.5,2.83333 -0.5,-0.5 Z"/></g>
<g><path style="opacity:1" fill="#090c09" d="M 49.5,-0.5 C 54.8333,-0.5 60.1667,-0.5 65.5,-0.5C 64.9329,1.69802 64.9329,4.03136 65.5,6.5C 64.5,6.5 63.5,6.5 62.5,6.5C 61.8826,6.61071 61.3826,6.94404 61,7.5C 59.7789,2.09505 57.9456,1.59505 55.5,6C 53.5273,6.49546 51.5273,6.66212 49.5,6.5C 49.5,7.5 49.5,8.5 49.5,9.5C 48.5,9.5 47.5,9.5 46.5,9.5C 46.9175,8.77842 47.5842,8.27842 48.5,8C 47.5448,6.28251 46.5448,4.61585 45.5,3C 47.0931,2.05127 48.4264,0.884606 49.5,-0.5 Z"/></g>
<g><path style="opacity:1" fill="#080a07" d="M 62.5,6.5 C 63.5676,7.43448 64.901,7.76781 66.5,7.5C 64.6309,8.16462 62.6309,8.83129 60.5,9.5C 60.8333,10.1667 61.1667,10.8333 61.5,11.5C 63.5,12.5 65.5,13.5 67.5,14.5C 66.0521,15.3539 64.7187,16.3539 63.5,17.5C 62.8076,16.9747 62.3076,16.3081 62,15.5C 61.7216,16.4158 61.2216,17.0825 60.5,17.5C 59.9946,13.6342 57.9946,12.3009 54.5,13.5C 51.692,12.1792 49.0254,10.8458 46.5,9.5C 47.5,9.5 48.5,9.5 49.5,9.5C 49.5,8.5 49.5,7.5 49.5,6.5C 51.5273,6.66212 53.5273,6.49546 55.5,6C 57.9456,1.59505 59.7789,2.09505 61,7.5C 61.3826,6.94404 61.8826,6.61071 62.5,6.5 Z"/></g>
<g><path style="opacity:1" fill="#171c19" d="M 98.5,-0.5 C 103.5,-0.5 108.5,-0.5 113.5,-0.5C 114.261,0.390917 115.261,1.05758 116.5,1.5C 118.462,0.365504 120.462,0.365504 122.5,1.5C 124.171,1.33179 125.504,0.665127 126.5,-0.5C 126.833,-0.5 127.167,-0.5 127.5,-0.5C 127.5,0.5 127.5,1.5 127.5,2.5C 125.833,2.5 124.167,2.5 122.5,2.5C 122.975,5.3126 121.975,7.3126 119.5,8.5C 119.062,8.56544 118.728,8.39877 118.5,8C 122.714,4.04731 122.047,2.88064 116.5,4.5C 116.299,7.7281 116.633,10.8948 117.5,14C 116.391,16.0466 115.724,18.2133 115.5,20.5C 115.44,21.0431 115.107,21.3764 114.5,21.5C 113.548,19.9547 113.215,18.288 113.5,16.5C 113.5,16.1667 113.5,15.8333 113.5,15.5C 114.404,14.791 114.737,13.791 114.5,12.5C 114.802,9.9407 114.468,7.60737 113.5,5.5C 113.029,4.09918 112.362,2.76585 111.5,1.5C 110.673,3.16203 109.507,4.49536 108,5.5C 107.667,4.83333 107.333,4.16667 107,3.5C 106.583,4.75598 105.75,5.42265 104.5,5.5C 104.5,4.16667 104.5,2.83333 104.5,1.5C 103.5,1.5 102.5,1.5 101.5,1.5C 101.5,2.83333 101.5,4.16667 101.5,5.5C 99.2919,3.85707 97.4585,4.1904 96,6.5C 95.6753,4.44731 96.0087,2.44731 97,0.5C 98.1068,1.7119 98.6068,1.37857 98.5,-0.5 Z"/></g>
<g><path style="opacity:1" fill="#a4aeb9" d="M 104.5,5.5 C 103.5,5.5 102.5,5.5 101.5,5.5C 101.5,4.16667 101.5,2.83333 101.5,1.5C 102.5,1.5 103.5,1.5 104.5,1.5C 104.5,2.83333 104.5,4.16667 104.5,5.5 Z"/></g>
<g><path style="opacity:1" fill="#b6c3c8" d="M 113.5,-0.5 C 117.833,-0.5 122.167,-0.5 126.5,-0.5C 125.504,0.665127 124.171,1.33179 122.5,1.5C 120.462,0.365504 118.462,0.365504 116.5,1.5C 115.261,1.05758 114.261,0.390917 113.5,-0.5 Z"/></g>
<g><path style="opacity:1" fill="#505a5b" d="M 138.5,4.5 C 138.5,5.83333 138.5,7.16667 138.5,8.5C 137.414,8.38002 136.747,7.71335 136.5,6.5C 136.747,5.28665 137.414,4.61998 138.5,4.5 Z"/></g>
<g><path style="opacity:1" fill="#0d110e" d="M 92.5,-0.5 C 94.5,-0.5 96.5,-0.5 98.5,-0.5C 98.6068,1.37857 98.1068,1.7119 97,0.5C 96.0087,2.44731 95.6753,4.44731 96,6.5C 97.4585,4.1904 99.2919,3.85707 101.5,5.5C 102.5,5.5 103.5,5.5 104.5,5.5C 104.354,7.94238 105.187,8.60905 107,7.5C 107.944,8.26304 108.444,9.26304 108.5,10.5C 107.106,12.6457 106.44,14.979 106.5,17.5C 104.901,17.2322 103.568,17.5655 102.5,18.5C 101.833,18.8333 101.167,19.1667 100.5,19.5C 99.7494,18.4265 98.7494,18.2599 97.5,19C 96.9341,19.9947 96.2674,20.828 95.5,21.5C 92.8333,21.5 90.1667,21.5 87.5,21.5C 87.1058,18.1429 88.4391,15.8095 91.5,14.5C 92.3333,12.8333 93.1667,11.1667 94,9.5C 94.8928,10.7112 95.7261,10.7112 96.5,9.5C 95.0965,7.08678 93.4298,4.92011 91.5,3C 93.727,2.29602 94.0603,1.12936 92.5,-0.5 Z"/></g>
<g><path style="opacity:1" fill="#090c09" d="M 65.5,-0.5 C 71.5,-0.5 77.5,-0.5 83.5,-0.5C 83.6621,1.5273 83.4955,3.5273 83,5.5C 81.3149,3.98252 79.8149,2.31585 78.5,0.5C 77.6781,4.87986 79.6781,6.87986 84.5,6.5C 84.5,8.5 84.5,10.5 84.5,12.5C 81.1449,11.3818 77.8116,11.3818 74.5,12.5C 73.4127,7.25983 72.4127,7.25983 71.5,12.5C 70.1765,13.8499 69.1765,13.6833 68.5,12C 69.7073,10.6998 70.3739,9.19981 70.5,7.5C 69.1667,7.5 67.8333,7.5 66.5,7.5C 64.901,7.76781 63.5676,7.43448 62.5,6.5C 63.5,6.5 64.5,6.5 65.5,6.5C 64.9329,4.03136 64.9329,1.69802 65.5,-0.5 Z"/></g>
<g><path style="opacity:1" fill="#556060" d="M 113.5,5.5 C 110.15,6.37837 109.817,7.87837 112.5,10C 109.094,10.6025 108.761,11.7692 111.5,13.5C 112.417,12.8728 113.417,12.5394 114.5,12.5C 114.737,13.791 114.404,14.791 113.5,15.5C 113.44,14.9569 113.107,14.6236 112.5,14.5C 105.846,16.4788 105.846,18.4788 112.5,20.5C 112.265,21.0967 111.765,21.4301 111,21.5C 109.333,20.8333 107.667,20.1667 106,19.5C 104.989,20.0556 104.156,20.7222 103.5,21.5C 103.737,20.209 103.404,19.209 102.5,18.5C 103.568,17.5655 104.901,17.2322 106.5,17.5C 106.44,14.979 107.106,12.6457 108.5,10.5C 108.444,9.26304 107.944,8.26304 107,7.5C 105.187,8.60905 104.354,7.94238 104.5,5.5C 105.75,5.42265 106.583,4.75598 107,3.5C 107.333,4.16667 107.667,4.83333 108,5.5C 109.507,4.49536 110.673,3.16203 111.5,1.5C 112.362,2.76585 113.029,4.09918 113.5,5.5 Z"/></g>
<g><path style="opacity:1" fill="#131914" d="M 83.5,-0.5 C 86.5,-0.5 89.5,-0.5 92.5,-0.5C 94.0603,1.12936 93.727,2.29602 91.5,3C 93.4298,4.92011 95.0965,7.08678 96.5,9.5C 95.7261,10.7112 94.8928,10.7112 94,9.5C 93.1667,11.1667 92.3333,12.8333 91.5,14.5C 88.4391,15.8095 87.1058,18.1429 87.5,21.5C 85.8333,21.5 84.1667,21.5 82.5,21.5C 82.6741,19.139 83.0074,16.8056 83.5,14.5C 85.0167,12.5408 87.6833,11.2074 91.5,10.5C 89.7612,10.4062 87.7612,10.2395 85.5,10C 86.6526,8.11699 88.3193,7.28366 90.5,7.5C 90.762,6.02218 90.4287,4.68884 89.5,3.5C 87.8974,4.79335 86.2307,5.79335 84.5,6.5C 79.6781,6.87986 77.6781,4.87986 78.5,0.5C 79.8149,2.31585 81.3149,3.98252 83,5.5C 83.4955,3.5273 83.6621,1.5273 83.5,-0.5 Z"/></g>
<g><path style="opacity:1" fill="#b3bdc3" d="M 113.5,5.5 C 114.468,7.60737 114.802,9.9407 114.5,12.5C 113.417,12.5394 112.417,12.8728 111.5,13.5C 108.761,11.7692 109.094,10.6025 112.5,10C 109.817,7.87837 110.15,6.37837 113.5,5.5 Z"/></g>
<g><path style="opacity:1" fill="#575553" d="M -0.5,9.5 C 0.833333,9.5 2.16667,9.5 3.5,9.5C 3.3287,12.7973 3.99536,13.1306 5.5,10.5C 8.34517,8.80918 10.6785,9.14251 12.5,11.5C 9.97516,12.64 7.30849,13.3067 4.5,13.5C 2.67761,13.1692 1.01094,12.5025 -0.5,11.5C -0.5,10.8333 -0.5,10.1667 -0.5,9.5 Z"/></g>
<g><path style="opacity:1" fill="#414947" d="M 119.5,8.5 C 119.833,9.83333 120.167,11.1667 120.5,12.5C 119.503,12.4701 118.836,12.9701 118.5,14C 119.077,15.9001 119.744,17.7334 120.5,19.5C 118.958,20.3007 117.292,20.634 115.5,20.5C 115.724,18.2133 116.391,16.0466 117.5,14C 116.633,10.8948 116.299,7.7281 116.5,4.5C 122.047,2.88064 122.714,4.04731 118.5,8C 118.728,8.39877 119.062,8.56544 119.5,8.5 Z"/></g>
<g><path style="opacity:1" fill="#070905" d="M 66.5,7.5 C 67.8333,7.5 69.1667,7.5 70.5,7.5C 70.3739,9.19981 69.7073,10.6998 68.5,12C 69.1765,13.6833 70.1765,13.8499 71.5,12.5C 72.5353,14.205 72.5353,15.8716 71.5,17.5C 69.3213,20.5638 66.3213,21.8971 62.5,21.5C 62.6495,20.448 62.4828,19.448 62,18.5C 60.3163,19.1929 58.8163,19.5263 57.5,19.5C 52.7884,18.916 52.4551,17.416 56.5,15C 57.8942,15.4993 59.2275,16.3326 60.5,17.5C 61.2216,17.0825 61.7216,16.4158 62,15.5C 62.3076,16.3081 62.8076,16.9747 63.5,17.5C 64.7187,16.3539 66.0521,15.3539 67.5,14.5C 65.5,13.5 63.5,12.5 61.5,11.5C 61.1667,10.8333 60.8333,10.1667 60.5,9.5C 62.6309,8.83129 64.6309,8.16462 66.5,7.5 Z"/></g>
<g><path style="opacity:1" fill="#0c110d" d="M 87.5,21.5 C 84.2343,24.4439 80.7343,24.7772 77,22.5C 75.9701,22.8361 75.4701,23.5028 75.5,24.5C 74.5,24.5 73.5,24.5 72.5,24.5C 68.0081,24.7252 63.3414,24.3919 58.5,23.5C 58.9175,22.7784 59.5842,22.2784 60.5,22C 59.4293,21.1482 58.4293,20.3149 57.5,19.5C 58.8163,19.5263 60.3163,19.1929 62,18.5C 62.4828,19.448 62.6495,20.448 62.5,21.5C 66.3213,21.8971 69.3213,20.5638 71.5,17.5C 72.5353,15.8716 72.5353,14.205 71.5,12.5C 72.4127,7.25983 73.4127,7.25983 74.5,12.5C 77.8116,11.3818 81.1449,11.3818 84.5,12.5C 84.5,10.5 84.5,8.5 84.5,6.5C 86.2307,5.79335 87.8974,4.79335 89.5,3.5C 90.4287,4.68884 90.762,6.02218 90.5,7.5C 88.3193,7.28366 86.6526,8.11699 85.5,10C 87.7612,10.2395 89.7612,10.4062 91.5,10.5C 87.6833,11.2074 85.0167,12.5408 83.5,14.5C 83.0074,16.8056 82.6741,19.139 82.5,21.5C 84.1667,21.5 85.8333,21.5 87.5,21.5 Z"/></g>
<g><path style="opacity:1" fill="#090c09" d="M 46.5,9.5 C 49.0254,10.8458 51.692,12.1792 54.5,13.5C 57.9946,12.3009 59.9946,13.6342 60.5,17.5C 59.2275,16.3326 57.8942,15.4993 56.5,15C 52.4551,17.416 52.7884,18.916 57.5,19.5C 58.4293,20.3149 59.4293,21.1482 60.5,22C 59.5842,22.2784 58.9175,22.7784 58.5,23.5C 58.1667,23.5 57.8333,23.5 57.5,23.5C 57.1995,20.683 55.8661,20.0163 53.5,21.5C 50.8023,16.7005 47.6357,16.3672 44,20.5C 42.2152,19.6462 41.0485,20.3129 40.5,22.5C 38.7451,23.7918 36.7451,24.7918 34.5,25.5C 34.7093,26.086 35.0426,26.586 35.5,27C 33.8659,27.4935 32.1992,27.6602 30.5,27.5C 29.6091,26.7387 28.9424,25.7387 28.5,24.5C 29.6477,22.8513 30.981,21.3513 32.5,20C 34.1134,19.9115 35.2801,20.7448 36,22.5C 40.7069,20.9105 40.5402,19.7438 35.5,19C 36.8009,17.3845 36.8009,15.8845 35.5,14.5C 33.7451,13.2082 31.7451,12.2082 29.5,11.5C 30.2427,10.8182 30.9094,10.1515 31.5,9.5C 34.958,9.90434 38.1247,10.9043 41,12.5C 42.1667,12.3333 43.3333,12.1667 44.5,12C 42.5643,11.187 40.5643,10.687 38.5,10.5C 38.5,9.16667 38.5,7.83333 38.5,6.5C 40.5,6.5 42.5,6.5 44.5,6.5C 44.2852,8.17876 44.9519,9.17876 46.5,9.5 Z"/></g>
<g><path style="opacity:1" fill="#444d4a" d="M 128.5,10.5 C 129.919,9.54885 131.585,9.21552 133.5,9.5C 133.33,12.4905 134.663,14.4905 137.5,15.5C 137.376,16.1067 137.043,16.44 136.5,16.5C 136.565,16.0618 136.399,15.7284 136,15.5C 132.7,18.2686 131.533,17.6019 132.5,13.5C 130.993,12.6114 129.66,11.6114 128.5,10.5 Z"/></g>
<g><path style="opacity:1" fill="#363734" d="M 12.5,11.5 C 12.5,13.5 12.5,15.5 12.5,17.5C 12.0472,18.4584 11.3805,19.2917 10.5,20C 11.448,20.4828 12.448,20.6495 13.5,20.5C 13.2965,22.3904 13.9632,23.8904 15.5,25C 15,25.1667 14.5,25.3333 14,25.5C 11.3558,22.6909 8.52249,20.0242 5.5,17.5C 4.49367,17.9377 4.49367,18.6043 5.5,19.5C 4.5,20.8333 3.5,20.8333 2.5,19.5C 3.37209,17.5504 4.03876,15.5504 4.5,13.5C 7.30849,13.3067 9.97516,12.64 12.5,11.5 Z"/></g>
<g><path style="opacity:1" fill="#141914" d="M 31.5,9.5 C 30.9094,10.1515 30.2427,10.8182 29.5,11.5C 31.7451,12.2082 33.7451,13.2082 35.5,14.5C 35.6309,15.3764 35.2975,16.0431 34.5,16.5C 33.4763,15.1468 32.143,14.4802 30.5,14.5C 30.5,16.5 30.5,18.5 30.5,20.5C 29.5,20.5 28.5,20.5 27.5,20.5C 26.5207,17.8433 24.854,17.1766 22.5,18.5C 23.1667,19.1667 23.8333,19.8333 24.5,20.5C 21.9135,21.48 19.2469,21.8134 16.5,21.5C 15.9473,19.4482 14.9473,19.1148 13.5,20.5C 12.448,20.6495 11.448,20.4828 10.5,20C 11.3805,19.2917 12.0472,18.4584 12.5,17.5C 17.4466,18.3724 21.6132,17.0391 25,13.5C 25.658,11.892 25.158,10.7253 23.5,10C 20.854,9.50258 18.1873,9.33591 15.5,9.5C 15.6724,5.02926 16.5057,4.69593 18,8.5C 18.779,7.27181 19.779,6.27181 21,5.5C 23.4783,6.24458 25.9783,6.91125 28.5,7.5C 31.2346,5.87487 34.2346,5.2082 37.5,5.5C 37.719,6.67504 37.3857,7.67504 36.5,8.5C 34.533,7.31617 32.8664,7.6495 31.5,9.5 Z"/></g>
<g><path style="opacity:1" fill="#a2abad" d="M 128.5,10.5 C 129.66,11.6114 130.993,12.6114 132.5,13.5C 131.533,17.6019 132.7,18.2686 136,15.5C 136.399,15.7284 136.565,16.0618 136.5,16.5C 136.5,17.5 136.5,18.5 136.5,19.5C 135.5,19.5 134.5,19.5 133.5,19.5C 133.5,20.5 133.5,21.5 133.5,22.5C 132.5,22.5 131.5,22.5 130.5,22.5C 130.5,21.1667 130.5,19.8333 130.5,18.5C 128.142,18.7475 126.142,18.0808 124.5,16.5C 124.328,15.5084 124.662,14.8417 125.5,14.5C 126.143,12.9236 127.143,11.5903 128.5,10.5 Z"/></g>
<g><path style="opacity:1" fill="#bec4cb" d="M 113.5,15.5 C 113.5,15.8333 113.5,16.1667 113.5,16.5C 112.566,17.5676 112.232,18.901 112.5,20.5C 105.846,18.4788 105.846,16.4788 112.5,14.5C 113.107,14.6236 113.44,14.9569 113.5,15.5 Z"/></g>
<g><path style="opacity:1" fill="#b2babf" d="M 120.5,12.5 C 120.392,14.5138 121.058,16.1805 122.5,17.5C 123.694,18.2719 124.694,19.2719 125.5,20.5C 123.585,20.7845 121.919,20.4511 120.5,19.5C 119.744,17.7334 119.077,15.9001 118.5,14C 118.836,12.9701 119.503,12.4701 120.5,12.5 Z"/></g>
<g><path style="opacity:1" fill="#111510" d="M -0.5,11.5 C 1.01094,12.5025 2.67761,13.1692 4.5,13.5C 4.03876,15.5504 3.37209,17.5504 2.5,19.5C 3.5,20.8333 4.5,20.8333 5.5,19.5C 4.49367,18.6043 4.49367,17.9377 5.5,17.5C 8.52249,20.0242 11.3558,22.6909 14,25.5C 14.5,25.3333 15,25.1667 15.5,25C 13.9632,23.8904 13.2965,22.3904 13.5,20.5C 14.9473,19.1148 15.9473,19.4482 16.5,21.5C 15.3473,22.3132 15.3473,23.3132 16.5,24.5C 18.8616,24.9743 21.195,25.3076 23.5,25.5C 20.5395,27.7509 17.2061,29.0842 13.5,29.5C 10.068,27.9393 6.40133,27.106 2.5,27C 7.49106,23.3712 6.49106,21.5379 -0.5,21.5C -0.5,18.1667 -0.5,14.8333 -0.5,11.5 Z"/></g>
<g><path style="opacity:1" fill="#d7dde1" d="M 102.5,18.5 C 103.404,19.209 103.737,20.209 103.5,21.5C 101.712,21.7852 100.045,21.4519 98.5,20.5C 98.9569,19.7025 99.6236,19.3691 100.5,19.5C 101.167,19.1667 101.833,18.8333 102.5,18.5 Z"/></g>
<g><path style="opacity:1" fill="#1e2420" d="M 138.5,12.5 C 138.5,18.5 138.5,24.5 138.5,30.5C 136.131,30.8511 133.797,31.0178 131.5,31C 133.385,28.9219 134.051,26.7553 133.5,24.5C 131.931,25.714 131.098,27.3807 131,29.5C 130.617,28.944 130.117,28.6107 129.5,28.5C 126.343,25.7645 125.009,26.7645 125.5,31.5C 124.348,30.375 123.348,30.375 122.5,31.5C 120.999,30.2485 119.332,29.2485 117.5,28.5C 117.821,26.9519 118.821,26.2852 120.5,26.5C 120.778,24.6536 120.111,23.3202 118.5,22.5C 116.962,24.2433 115.962,26.2433 115.5,28.5C 112.224,28.144 109.557,29.144 107.5,31.5C 106.833,31.5 106.167,31.5 105.5,31.5C 105.167,31.5 104.833,31.5 104.5,31.5C 103.517,30.1497 102.184,29.1497 100.5,28.5C 99.7542,27.2638 99.4208,25.9305 99.5,24.5C 101.512,25.0138 103.512,25.1805 105.5,25C 104.177,24.1841 103.511,23.0174 103.5,21.5C 104.156,20.7222 104.989,20.0556 106,19.5C 107.667,20.1667 109.333,20.8333 111,21.5C 111.765,21.4301 112.265,21.0967 112.5,20.5C 112.232,18.901 112.566,17.5676 113.5,16.5C 113.215,18.288 113.548,19.9547 114.5,21.5C 115.107,21.3764 115.44,21.0431 115.5,20.5C 117.292,20.634 118.958,20.3007 120.5,19.5C 121.919,20.4511 123.585,20.7845 125.5,20.5C 126.583,20.4606 127.583,20.1272 128.5,19.5C 129.176,20.6016 129.842,21.6016 130.5,22.5C 131.5,22.5 132.5,22.5 133.5,22.5C 133.5,21.5 133.5,20.5 133.5,19.5C 134.5,19.5 135.5,19.5 136.5,19.5C 136.5,18.5 136.5,17.5 136.5,16.5C 137.043,16.44 137.376,16.1067 137.5,15.5C 134.663,14.4905 133.33,12.4905 133.5,9.5C 131.585,9.21552 129.919,9.54885 128.5,10.5C 127.143,11.5903 126.143,12.9236 125.5,14.5C 125.52,12.857 124.853,11.5237 123.5,10.5C 123.833,9.83333 124.167,9.16667 124.5,8.5C 127.74,8.02436 131.073,8.02436 134.5,8.5C 134.5,9.83333 134.5,11.1667 134.5,12.5C 135.833,12.5 137.167,12.5 138.5,12.5 Z"/></g>
<g><path style="opacity:1" fill="#444d49" d="M 124.5,16.5 C 126.142,18.0808 128.142,18.7475 130.5,18.5C 130.5,19.8333 130.5,21.1667 130.5,22.5C 129.842,21.6016 129.176,20.6016 128.5,19.5C 127.583,20.1272 126.583,20.4606 125.5,20.5C 124.694,19.2719 123.694,18.2719 122.5,17.5C 123.492,17.6716 124.158,17.3382 124.5,16.5 Z"/></g>
<g><path style="opacity:1" fill="#404853" d="M 100.5,19.5 C 99.6236,19.3691 98.9569,19.7025 98.5,20.5C 100.045,21.4519 101.712,21.7852 103.5,21.5C 103.511,23.0174 104.177,24.1841 105.5,25C 103.512,25.1805 101.512,25.0138 99.5,24.5C 99.4208,25.9305 99.7542,27.2638 100.5,28.5C 102.184,29.1497 103.517,30.1497 104.5,31.5C 103.305,31.3225 102.138,30.9891 101,30.5C 99.8261,31.5442 98.6594,32.5442 97.5,33.5C 97.5,31.8333 97.5,30.1667 97.5,28.5C 97.6716,27.5084 97.3382,26.8417 96.5,26.5C 97.7345,24.6017 97.4011,22.935 95.5,21.5C 96.2674,20.828 96.9341,19.9947 97.5,19C 98.7494,18.2599 99.7494,18.4265 100.5,19.5 Z"/></g>
<g><path style="opacity:1" fill="#212327" d="M 87.5,21.5 C 90.1667,21.5 92.8333,21.5 95.5,21.5C 97.4011,22.935 97.7345,24.6017 96.5,26.5C 93.3479,26.0471 90.8479,27.0471 89,29.5C 86.8777,28.7801 86.3777,27.6134 87.5,26C 86.2068,25.51 84.8734,25.3433 83.5,25.5C 80.7628,25.5987 78.0961,25.2653 75.5,24.5C 75.4701,23.5028 75.9701,22.8361 77,22.5C 80.7343,24.7772 84.2343,24.4439 87.5,21.5 Z"/></g>
<g><path style="opacity:1" fill="#090807" d="M 72.5,24.5 C 73.5,24.5 74.5,24.5 75.5,24.5C 78.0961,25.2653 80.7628,25.5987 83.5,25.5C 83.5228,27.5996 82.8561,29.4329 81.5,31C 84.9272,33.6689 84.5938,36.3355 80.5,39C 78.7525,39.3519 77.0858,39.8519 75.5,40.5C 74.1667,40.1667 72.8333,39.8333 71.5,39.5C 71.5,38.8333 71.1667,38.5 70.5,38.5C 69.7259,35.6747 68.0592,33.508 65.5,32C 67.4875,30.6811 68.6541,28.8477 69,26.5C 70.1127,25.695 71.2794,25.0283 72.5,24.5 Z"/></g>
<g><path style="opacity:1" fill="#070905" d="M 57.5,23.5 C 60.1818,25.0795 63.1818,26.2462 66.5,27C 63.5,28 60.5,29 57.5,30C 56.9205,31.3349 56.5872,32.5015 56.5,33.5C 54.6916,33.5086 53.0249,33.0086 51.5,32C 52.3081,31.6924 52.9747,31.1924 53.5,30.5C 52.3112,29.5713 50.9778,29.238 49.5,29.5C 47.396,29.7989 45.396,29.4656 43.5,28.5C 44.0253,27.8076 44.6919,27.3076 45.5,27C 44.6634,25.9887 44.33,24.8221 44.5,23.5C 43.0413,23.5674 41.7079,23.2341 40.5,22.5C 41.0485,20.3129 42.2152,19.6462 44,20.5C 47.6357,16.3672 50.8023,16.7005 53.5,21.5C 55.8661,20.0163 57.1995,20.683 57.5,23.5 Z"/></g>
<g><path style="opacity:1" fill="#6c7573" d="M 117.5,28.5 C 116.833,28.5 116.167,28.5 115.5,28.5C 115.962,26.2433 116.962,24.2433 118.5,22.5C 120.111,23.3202 120.778,24.6536 120.5,26.5C 118.821,26.2852 117.821,26.9519 117.5,28.5 Z"/></g>
<g><path style="opacity:1" fill="#0a0d08" d="M 27.5,20.5 C 24.8739,23.5235 25.2072,26.3568 28.5,29C 26.8068,29.8466 25.1401,30.6799 23.5,31.5C 25.0337,29.6579 24.7003,28.3246 22.5,27.5C 21.3953,29.9689 19.562,31.6356 17,32.5C 16.6667,32.1667 16.3333,31.8333 16,31.5C 14.872,33.3453 14.372,35.3453 14.5,37.5C 10.7477,36.244 7.41441,34.244 4.5,31.5C 3.34046,33.0725 2.34046,34.7392 1.5,36.5C 1.83333,37.1667 2.16667,37.8333 2.5,38.5C 5.8198,39.4414 9.15314,39.6081 12.5,39C 12.0426,39.414 11.7093,39.914 11.5,40.5C 8.1975,41.4396 4.86416,42.273 1.5,43C 4.19408,45.5525 3.52741,46.7192 -0.5,46.5C -0.5,38.1667 -0.5,29.8333 -0.5,21.5C 6.49106,21.5379 7.49106,23.3712 2.5,27C 6.40133,27.106 10.068,27.9393 13.5,29.5C 17.2061,29.0842 20.5395,27.7509 23.5,25.5C 21.195,25.3076 18.8616,24.9743 16.5,24.5C 15.3473,23.3132 15.3473,22.3132 16.5,21.5C 19.2469,21.8134 21.9135,21.48 24.5,20.5C 23.8333,19.8333 23.1667,19.1667 22.5,18.5C 24.854,17.1766 26.5207,17.8433 27.5,20.5 Z"/></g>
<g><path style="opacity:1" fill="#828b86" d="M 129.5,28.5 C 128.5,28.5 127.5,28.5 126.5,28.5C 126.84,30.5476 126.507,31.5476 125.5,31.5C 125.009,26.7645 126.343,25.7645 129.5,28.5 Z"/></g>
<g><path style="opacity:1" fill="#0a0d09" d="M 40.5,22.5 C 41.7079,23.2341 43.0413,23.5674 44.5,23.5C 44.33,24.8221 44.6634,25.9887 45.5,27C 44.6919,27.3076 44.0253,27.8076 43.5,28.5C 45.396,29.4656 47.396,29.7989 49.5,29.5C 50.0671,31.698 50.0671,34.0314 49.5,36.5C 50.552,36.3505 51.552,36.5172 52.5,37C 51.5363,41.0659 51.203,45.2325 51.5,49.5C 52.5,49.5 53.5,49.5 54.5,49.5C 54.5,50.1667 54.5,50.8333 54.5,51.5C 51.5,51.5 48.5,51.5 45.5,51.5C 46.3479,49.9069 47.6813,48.7403 49.5,48C 48.1379,45.9656 47.1379,43.7989 46.5,41.5C 44.1432,41.6633 41.8098,41.4966 39.5,41C 38.1667,40 38.1667,39 39.5,38C 37.8659,37.5065 36.1992,37.3398 34.5,37.5C 33.8333,37.5 33.1667,37.5 32.5,37.5C 32.1667,36.5 31.5,35.8333 30.5,35.5C 32.3562,32.0292 34.6896,31.3626 37.5,33.5C 38.5,33 39.5,32.5 40.5,32C 37.0106,30.6335 33.6773,29.1335 30.5,27.5C 32.1992,27.6602 33.8659,27.4935 35.5,27C 35.0426,26.586 34.7093,26.086 34.5,25.5C 36.7451,24.7918 38.7451,23.7918 40.5,22.5 Z"/></g>
<g><path style="opacity:1" fill="#0e120e" d="M 35.5,14.5 C 36.8009,15.8845 36.8009,17.3845 35.5,19C 40.5402,19.7438 40.7069,20.9105 36,22.5C 35.2801,20.7448 34.1134,19.9115 32.5,20C 30.981,21.3513 29.6477,22.8513 28.5,24.5C 28.9424,25.7387 29.6091,26.7387 30.5,27.5C 33.6773,29.1335 37.0106,30.6335 40.5,32C 39.5,32.5 38.5,33 37.5,33.5C 34.6896,31.3626 32.3562,32.0292 30.5,35.5C 29.36,36.8014 28.0267,37.9681 26.5,39C 26.8333,39.3333 27.1667,39.6667 27.5,40C 26.0267,40.7096 25.3601,41.8762 25.5,43.5C 22.9885,43.838 20.6552,43.838 18.5,43.5C 19.7224,41.0217 21.7224,40.0217 24.5,40.5C 24.2962,37.4824 23.9629,34.4824 23.5,31.5C 25.1401,30.6799 26.8068,29.8466 28.5,29C 25.2072,26.3568 24.8739,23.5235 27.5,20.5C 28.5,20.5 29.5,20.5 30.5,20.5C 30.5,18.5 30.5,16.5 30.5,14.5C 32.143,14.4802 33.4763,15.1468 34.5,16.5C 35.2975,16.0431 35.6309,15.3764 35.5,14.5 Z"/></g>
<g><path style="opacity:1" fill="#161a17" d="M 57.5,23.5 C 57.8333,23.5 58.1667,23.5 58.5,23.5C 63.3414,24.3919 68.0081,24.7252 72.5,24.5C 71.2794,25.0283 70.1127,25.695 69,26.5C 68.6541,28.8477 67.4875,30.6811 65.5,32C 68.0592,33.508 69.7259,35.6747 70.5,38.5C 69.1667,38.5 67.8333,38.5 66.5,38.5C 63.9954,38.9802 61.6621,39.9802 59.5,41.5C 58.6143,40.675 58.281,39.675 58.5,38.5C 59.5,38.5 60.5,38.5 61.5,38.5C 61.5,37.5 61.5,36.5 61.5,35.5C 59.2188,35.9227 57.5521,35.256 56.5,33.5C 56.5872,32.5015 56.9205,31.3349 57.5,30C 60.5,29 63.5,28 66.5,27C 63.1818,26.2462 60.1818,25.0795 57.5,23.5 Z"/></g>
<g><path style="opacity:1" fill="#909fb4" d="M 104.5,31.5 C 104.833,31.5 105.167,31.5 105.5,31.5C 102.009,32.1481 99.5087,34.1481 98,37.5C 97.5172,36.552 97.3505,35.552 97.5,34.5C 97.5,34.1667 97.5,33.8333 97.5,33.5C 98.6594,32.5442 99.8261,31.5442 101,30.5C 102.138,30.9891 103.305,31.3225 104.5,31.5 Z"/></g>
<g><path style="opacity:1" fill="#454d5a" d="M 105.5,31.5 C 106.167,31.5 106.833,31.5 107.5,31.5C 109.346,33.0301 110.346,35.0301 110.5,37.5C 110.167,37.5 109.833,37.5 109.5,37.5C 108.714,35.2649 107.048,34.2649 104.5,34.5C 101.488,34.1787 100.155,35.512 100.5,38.5C 98.9826,38.5106 97.8159,39.1772 97,40.5C 96.2109,38.2884 96.3775,36.2884 97.5,34.5C 97.3505,35.552 97.5172,36.552 98,37.5C 99.5087,34.1481 102.009,32.1481 105.5,31.5 Z"/></g>
<g><path style="opacity:1" fill="#0f0e0e" d="M 115.5,28.5 C 116.167,28.5 116.833,28.5 117.5,28.5C 119.332,29.2485 120.999,30.2485 122.5,31.5C 123.604,33.3885 124.937,35.0552 126.5,36.5C 126.5,37.1667 126.5,37.8333 126.5,38.5C 124.281,39.8796 122.281,39.5463 120.5,37.5C 118.897,38.7934 117.231,39.7934 115.5,40.5C 113.446,40.6347 111.779,39.968 110.5,38.5C 110.5,38.1667 110.5,37.8333 110.5,37.5C 110.346,35.0301 109.346,33.0301 107.5,31.5C 109.557,29.144 112.224,28.144 115.5,28.5 Z"/></g>
<g><path style="opacity:1" fill="#d6d8d8" d="M 129.5,28.5 C 131.218,31.731 130.218,33.731 126.5,34.5C 127.274,35.7112 128.107,35.7112 129,34.5C 129.594,37.2189 128.76,37.8856 126.5,36.5C 124.937,35.0552 123.604,33.3885 122.5,31.5C 123.348,30.375 124.348,30.375 125.5,31.5C 126.507,31.5476 126.84,30.5476 126.5,28.5C 127.5,28.5 128.5,28.5 129.5,28.5 Z"/></g>
<g><path style="opacity:1" fill="#4d534c" d="M 138.5,30.5 C 138.5,31.1667 138.5,31.8333 138.5,32.5C 136.5,32.5 134.5,32.5 132.5,32.5C 132.5,33.5 132.5,34.5 132.5,35.5C 133.791,35.2627 134.791,35.596 135.5,36.5C 133.692,36.4914 132.025,36.9914 130.5,38C 132.439,38.9078 133.439,40.4078 133.5,42.5C 131.801,42.6602 130.134,42.4935 128.5,42C 129.996,39.5528 129.663,38.7194 127.5,39.5C 127.5,38.8333 127.167,38.5 126.5,38.5C 126.5,37.8333 126.5,37.1667 126.5,36.5C 128.76,37.8856 129.594,37.2189 129,34.5C 128.107,35.7112 127.274,35.7112 126.5,34.5C 130.218,33.731 131.218,31.731 129.5,28.5C 130.117,28.6107 130.617,28.944 131,29.5C 131.098,27.3807 131.931,25.714 133.5,24.5C 134.051,26.7553 133.385,28.9219 131.5,31C 133.797,31.0178 136.131,30.8511 138.5,30.5 Z"/></g>
<g><path style="opacity:1" fill="#0f0e0f" d="M 83.5,25.5 C 84.8734,25.3433 86.2068,25.51 87.5,26C 86.3777,27.6134 86.8777,28.7801 89,29.5C 90.8479,27.0471 93.3479,26.0471 96.5,26.5C 97.3382,26.8417 97.6716,27.5084 97.5,28.5C 94.9902,30.968 91.9902,32.8013 88.5,34C 89.1258,34.7504 89.6258,35.5838 90,36.5C 91.6354,35.1514 93.1354,35.3181 94.5,37C 91.0536,38.9628 91.0536,40.2961 94.5,41C 94.1667,41.3333 93.8333,41.6667 93.5,42C 94.6621,42.8271 95.8288,43.6604 97,44.5C 100.477,43.4771 103.643,43.4771 106.5,44.5C 107.362,45.7658 108.029,47.0992 108.5,48.5C 107.833,50.1667 107.167,51.8333 106.5,53.5C 105.599,52.7095 104.932,51.7095 104.5,50.5C 101.983,51.0047 99.4834,50.3381 97,48.5C 96.5172,49.448 96.3505,50.448 96.5,51.5C 94.8997,50.748 93.3997,49.748 92,48.5C 91.2496,49.1258 90.4162,49.6258 89.5,50C 90.8333,51.3333 92.1667,52.6667 93.5,54C 92.944,54.3826 92.6107,54.8826 92.5,55.5C 92.5299,56.4972 92.0299,57.1639 91,57.5C 88.5973,55.6841 86.0973,55.3507 83.5,56.5C 81.8845,54.262 80.5512,51.9287 79.5,49.5C 79.7373,48.209 79.404,47.209 78.5,46.5C 78.5674,45.0413 78.2341,43.7079 77.5,42.5C 77.1583,41.6618 76.4916,41.3284 75.5,41.5C 75.5,41.1667 75.5,40.8333 75.5,40.5C 77.0858,39.8519 78.7525,39.3519 80.5,39C 84.5938,36.3355 84.9272,33.6689 81.5,31C 82.8561,29.4329 83.5228,27.5996 83.5,25.5 Z"/></g>
<g><path style="opacity:1" fill="#828884" d="M 138.5,32.5 C 138.5,33.5 138.5,34.5 138.5,35.5C 137.609,36.1098 136.609,36.4431 135.5,36.5C 134.791,35.596 133.791,35.2627 132.5,35.5C 132.5,34.5 132.5,33.5 132.5,32.5C 134.5,32.5 136.5,32.5 138.5,32.5 Z"/></g>
<g><path style="opacity:1" fill="#0d0f0a" d="M 49.5,29.5 C 50.9778,29.238 52.3112,29.5713 53.5,30.5C 52.9747,31.1924 52.3081,31.6924 51.5,32C 53.0249,33.0086 54.6916,33.5086 56.5,33.5C 57.5521,35.256 59.2188,35.9227 61.5,35.5C 61.5,36.5 61.5,37.5 61.5,38.5C 60.5,38.5 59.5,38.5 58.5,38.5C 58.281,39.675 58.6143,40.675 59.5,41.5C 61.6621,39.9802 63.9954,38.9802 66.5,38.5C 66.5,39.5 66.5,40.5 66.5,41.5C 64.1042,43.0233 61.4375,44.0233 58.5,44.5C 59.2309,46.5988 59.2309,48.5988 58.5,50.5C 57.8302,48.7086 57.1635,47.0419 56.5,45.5C 55.1411,44.9935 54.1411,43.9935 53.5,42.5C 52.2302,44.7568 52.5636,46.7568 54.5,48.5C 54.5,48.8333 54.5,49.1667 54.5,49.5C 53.5,49.5 52.5,49.5 51.5,49.5C 51.203,45.2325 51.5363,41.0659 52.5,37C 51.552,36.5172 50.552,36.3505 49.5,36.5C 50.0671,34.0314 50.0671,31.698 49.5,29.5 Z"/></g>
<g><path style="opacity:1" fill="#101011" d="M 109.5,37.5 C 109.167,37.5 108.833,37.5 108.5,37.5C 107.566,38.5676 107.232,39.901 107.5,41.5C 105.167,41.5 102.833,41.5 100.5,41.5C 100.5,40.5 100.5,39.5 100.5,38.5C 100.155,35.512 101.488,34.1787 104.5,34.5C 107.048,34.2649 108.714,35.2649 109.5,37.5 Z"/></g>
<g><path style="opacity:1" fill="#080b06" d="M 23.5,31.5 C 23.9629,34.4824 24.2962,37.4824 24.5,40.5C 21.7224,40.0217 19.7224,41.0217 18.5,43.5C 20.6552,43.838 22.9885,43.838 25.5,43.5C 25.3601,41.8762 26.0267,40.7096 27.5,40C 27.1667,39.6667 26.8333,39.3333 26.5,39C 28.0267,37.9681 29.36,36.8014 30.5,35.5C 31.5,35.8333 32.1667,36.5 32.5,37.5C 31.6236,37.3691 30.9569,37.7025 30.5,38.5C 31.6446,39.891 31.6446,41.2243 30.5,42.5C 29.914,42.2907 29.414,41.9574 29,41.5C 26.5945,43.7519 24.0945,45.7519 21.5,47.5C 17.9988,46.0562 14.3321,44.8895 10.5,44C 12.0518,41.2185 14.3851,39.5518 17.5,39C 16.4734,38.4867 15.4734,37.9867 14.5,37.5C 14.372,35.3453 14.872,33.3453 16,31.5C 16.3333,31.8333 16.6667,32.1667 17,32.5C 19.562,31.6356 21.3953,29.9689 22.5,27.5C 24.7003,28.3246 25.0337,29.6579 23.5,31.5 Z"/></g>
<g><path style="opacity:1" fill="#5c5e57" d="M 66.5,38.5 C 67.8333,38.5 69.1667,38.5 70.5,38.5C 71.1667,38.5 71.5,38.8333 71.5,39.5C 70.0697,40.5375 68.403,41.2041 66.5,41.5C 66.5,40.5 66.5,39.5 66.5,38.5 Z"/></g>
<g><path style="opacity:1" fill="#e5e5e4" d="M 115.5,40.5 C 116.649,40.7911 117.316,41.6244 117.5,43C 117.001,46.0075 116.001,46.1741 114.5,43.5C 114.557,42.391 114.89,41.391 115.5,40.5 Z"/></g>
<g><path style="opacity:1" fill="#282929" d="M 97.5,28.5 C 97.5,30.1667 97.5,31.8333 97.5,33.5C 97.5,33.8333 97.5,34.1667 97.5,34.5C 96.3775,36.2884 96.2109,38.2884 97,40.5C 97.8159,39.1772 98.9826,38.5106 100.5,38.5C 100.5,39.5 100.5,40.5 100.5,41.5C 102.833,41.5 105.167,41.5 107.5,41.5C 107.232,39.901 107.566,38.5676 108.5,37.5C 108.336,40.1873 108.503,42.854 109,45.5C 110.352,43.4062 110.852,41.0728 110.5,38.5C 111.779,39.968 113.446,40.6347 115.5,40.5C 114.89,41.391 114.557,42.391 114.5,43.5C 113.123,46.6358 113.456,49.6358 115.5,52.5C 116.183,52.1373 116.85,51.8039 117.5,51.5C 118.167,51.5 118.833,51.5 119.5,51.5C 120.568,52.4345 121.901,52.7678 123.5,52.5C 123.263,53.791 123.596,54.791 124.5,55.5C 124.262,57.4044 123.262,58.7377 121.5,59.5C 122.434,57.7615 122.434,56.0948 121.5,54.5C 120.167,55.8333 118.833,55.8333 117.5,54.5C 116.33,55.6939 116.663,56.3605 118.5,56.5C 117.458,57.7911 116.292,57.7911 115,56.5C 114.506,58.1341 114.34,59.8008 114.5,61.5C 111.075,61.6332 110.742,60.9665 113.5,59.5C 112.263,57.9032 110.596,56.7365 108.5,56C 109.056,55.6174 109.389,55.1174 109.5,54.5C 111.252,54.5824 112.252,53.7491 112.5,52C 112.062,50.0797 111.395,48.2464 110.5,46.5C 109.818,47.2427 109.151,47.9094 108.5,48.5C 108.029,47.0992 107.362,45.7658 106.5,44.5C 103.643,43.4771 100.477,43.4771 97,44.5C 95.8288,43.6604 94.6621,42.8271 93.5,42C 93.8333,41.6667 94.1667,41.3333 94.5,41C 91.0536,40.2961 91.0536,38.9628 94.5,37C 93.1354,35.3181 91.6354,35.1514 90,36.5C 89.6258,35.5838 89.1258,34.7504 88.5,34C 91.9902,32.8013 94.9902,30.968 97.5,28.5 Z"/></g>
<g><path style="opacity:1" fill="#060803" d="M 32.5,37.5 C 33.1667,37.5 33.8333,37.5 34.5,37.5C 34.3379,39.5273 34.5045,41.5273 35,43.5C 38.1988,42.7636 38.3655,43.5969 35.5,46C 37.8833,46.065 38.55,46.8983 37.5,48.5C 38.0354,50.2705 38.8687,50.6039 40,49.5C 40.9145,52.3434 40.0812,54.5101 37.5,56C 39.0978,57.7261 38.7645,58.5594 36.5,58.5C 36.1667,58.5 35.8333,58.5 35.5,58.5C 34.8333,57.1667 33.8333,56.1667 32.5,55.5C 29.7422,54.2395 26.7422,53.4061 23.5,53C 22.9011,51.3775 22.2344,49.8775 21.5,48.5C 21.5,48.1667 21.5,47.8333 21.5,47.5C 24.0945,45.7519 26.5945,43.7519 29,41.5C 29.414,41.9574 29.914,42.2907 30.5,42.5C 31.6446,41.2243 31.6446,39.891 30.5,38.5C 30.9569,37.7025 31.6236,37.3691 32.5,37.5 Z"/></g>
<g><path style="opacity:1" fill="#888a8a" d="M 108.5,37.5 C 108.833,37.5 109.167,37.5 109.5,37.5C 109.833,37.5 110.167,37.5 110.5,37.5C 110.5,37.8333 110.5,38.1667 110.5,38.5C 110.852,41.0728 110.352,43.4062 109,45.5C 108.503,42.854 108.336,40.1873 108.5,37.5 Z"/></g>
<g><path style="opacity:1" fill="#1b1e19" d="M 138.5,35.5 C 138.5,41.5 138.5,47.5 138.5,53.5C 136.2,55.2018 133.533,55.8685 130.5,55.5C 130.5,54.5 130.5,53.5 130.5,52.5C 131.959,52.4326 133.292,52.7659 134.5,53.5C 137.167,52.8333 137.167,52.1667 134.5,51.5C 134.557,50.391 134.89,49.391 135.5,48.5C 136.338,48.1583 136.672,47.4916 136.5,46.5C 134.338,42.7099 132.005,42.7099 129.5,46.5C 127.883,47.038 126.216,47.3713 124.5,47.5C 124.366,45.7085 124.699,44.0418 125.5,42.5C 126.551,41.7777 127.218,40.7777 127.5,39.5C 129.663,38.7194 129.996,39.5528 128.5,42C 130.134,42.4935 131.801,42.6602 133.5,42.5C 133.439,40.4078 132.439,38.9078 130.5,38C 132.025,36.9914 133.692,36.4914 135.5,36.5C 136.609,36.4431 137.609,36.1098 138.5,35.5 Z"/></g>
<g><path style="opacity:1" fill="#151d15" d="M 14.5,37.5 C 15.4734,37.9867 16.4734,38.4867 17.5,39C 14.3851,39.5518 12.0518,41.2185 10.5,44C 14.3321,44.8895 17.9988,46.0562 21.5,47.5C 21.5,47.8333 21.5,48.1667 21.5,48.5C 21.3893,49.1174 21.056,49.6174 20.5,50C 18.1902,50.4966 15.8568,50.6633 13.5,50.5C 14.6323,47.2673 13.299,45.6006 9.5,45.5C 6.40691,47.3089 3.07358,48.3089 -0.5,48.5C -0.5,47.8333 -0.5,47.1667 -0.5,46.5C 3.52741,46.7192 4.19408,45.5525 1.5,43C 4.86416,42.273 8.1975,41.4396 11.5,40.5C 11.7093,39.914 12.0426,39.414 12.5,39C 9.15314,39.6081 5.8198,39.4414 2.5,38.5C 2.16667,37.8333 1.83333,37.1667 1.5,36.5C 2.34046,34.7392 3.34046,33.0725 4.5,31.5C 7.41441,34.244 10.7477,36.244 14.5,37.5 Z"/></g>
<g><path style="opacity:1" fill="#11130f" d="M 34.5,37.5 C 36.1992,37.3398 37.8659,37.5065 39.5,38C 38.1667,39 38.1667,40 39.5,41C 41.8098,41.4966 44.1432,41.6633 46.5,41.5C 47.1379,43.7989 48.1379,45.9656 49.5,48C 47.6813,48.7403 46.3479,49.9069 45.5,51.5C 44.9935,52.8589 43.9935,53.8589 42.5,54.5C 43.3202,56.1112 44.6536,56.7778 46.5,56.5C 46.2852,58.1788 46.9519,59.1788 48.5,59.5C 48.5,60.5 48.5,61.5 48.5,62.5C 45.1501,62.665 41.8168,62.4983 38.5,62C 37.1772,61.1841 36.5106,60.0174 36.5,58.5C 38.7645,58.5594 39.0978,57.7261 37.5,56C 40.0812,54.5101 40.9145,52.3434 40,49.5C 38.8687,50.6039 38.0354,50.2705 37.5,48.5C 38.55,46.8983 37.8833,46.065 35.5,46C 38.3655,43.5969 38.1988,42.7636 35,43.5C 34.5045,41.5273 34.3379,39.5273 34.5,37.5 Z"/></g>
<g><path style="opacity:1" fill="#181b17" d="M 71.5,39.5 C 72.8333,39.8333 74.1667,40.1667 75.5,40.5C 75.5,40.8333 75.5,41.1667 75.5,41.5C 74.7222,42.1556 74.0556,42.9889 73.5,44C 75.2346,46.4019 75.5679,48.9019 74.5,51.5C 73.8165,51.1373 73.1499,50.8039 72.5,50.5C 71.5248,48.4872 69.8581,47.1539 67.5,46.5C 66.8933,46.6236 66.56,46.9569 66.5,47.5C 64.8762,47.6399 63.7096,46.9733 63,45.5C 61.5053,47.1096 61.3387,48.7763 62.5,50.5C 62.1207,52.2131 61.1207,53.2131 59.5,53.5C 58.4479,51.744 56.7812,51.0773 54.5,51.5C 54.5,50.8333 54.5,50.1667 54.5,49.5C 54.5,49.1667 54.5,48.8333 54.5,48.5C 55.1174,48.6107 55.6174,48.944 56,49.5C 56.49,48.2068 56.6567,46.8734 56.5,45.5C 57.1635,47.0419 57.8302,48.7086 58.5,50.5C 59.2309,48.5988 59.2309,46.5988 58.5,44.5C 61.4375,44.0233 64.1042,43.0233 66.5,41.5C 68.403,41.2041 70.0697,40.5375 71.5,39.5 Z"/></g>
<g><path style="opacity:1" fill="#8e908a" d="M 126.5,38.5 C 127.167,38.5 127.5,38.8333 127.5,39.5C 127.218,40.7777 126.551,41.7777 125.5,42.5C 123.401,41.7691 121.401,41.7691 119.5,42.5C 119.833,43.1667 120.167,43.8333 120.5,44.5C 118.684,45.8149 117.017,47.3149 115.5,49C 116.381,49.7083 117.047,50.5416 117.5,51.5C 116.85,51.8039 116.183,52.1373 115.5,52.5C 113.456,49.6358 113.123,46.6358 114.5,43.5C 116.001,46.1741 117.001,46.0075 117.5,43C 117.316,41.6244 116.649,40.7911 115.5,40.5C 117.231,39.7934 118.897,38.7934 120.5,37.5C 122.281,39.5463 124.281,39.8796 126.5,38.5 Z"/></g>
<g><path style="opacity:1" fill="#72726d" d="M 56.5,45.5 C 56.6567,46.8734 56.49,48.2068 56,49.5C 55.6174,48.944 55.1174,48.6107 54.5,48.5C 52.5636,46.7568 52.2302,44.7568 53.5,42.5C 54.1411,43.9935 55.1411,44.9935 56.5,45.5 Z"/></g>
<g><path style="opacity:1" fill="#727670" d="M 136.5,46.5 C 134.167,46.5 131.833,46.5 129.5,46.5C 132.005,42.7099 134.338,42.7099 136.5,46.5 Z"/></g>
<g><path style="opacity:1" fill="#6c6e67" d="M 77.5,42.5 C 78.2341,43.7079 78.5674,45.0413 78.5,46.5C 78.6309,47.3764 78.2975,48.0431 77.5,48.5C 76.2072,46.3635 76.2072,44.3635 77.5,42.5 Z"/></g>
<g><path style="opacity:1" fill="#353933" d="M 125.5,42.5 C 124.699,44.0418 124.366,45.7085 124.5,47.5C 126.216,47.3713 127.883,47.038 129.5,46.5C 128.554,47.9308 127.388,49.2642 126,50.5C 124.559,49.7402 123.059,49.0736 121.5,48.5C 120.081,49.0047 119.415,50.0047 119.5,51.5C 118.833,51.5 118.167,51.5 117.5,51.5C 117.047,50.5416 116.381,49.7083 115.5,49C 117.017,47.3149 118.684,45.8149 120.5,44.5C 120.167,43.8333 119.833,43.1667 119.5,42.5C 121.401,41.7691 123.401,41.7691 125.5,42.5 Z"/></g>
<g><path style="opacity:1" fill="#c8c7c4" d="M 129.5,46.5 C 131.833,46.5 134.167,46.5 136.5,46.5C 136.672,47.4916 136.338,48.1583 135.5,48.5C 132.889,48.6456 130.889,49.8123 129.5,52C 127.314,52.0613 125.314,52.2279 123.5,52.5C 121.901,52.7678 120.568,52.4345 119.5,51.5C 119.415,50.0047 120.081,49.0047 121.5,48.5C 123.059,49.0736 124.559,49.7402 126,50.5C 127.388,49.2642 128.554,47.9308 129.5,46.5 Z"/></g>
<g><path style="opacity:1" fill="#5d5e58" d="M 72.5,50.5 C 71.6236,50.3691 70.9569,50.7025 70.5,51.5C 71.7914,52.5272 71.7914,53.5272 70.5,54.5C 68.4284,52.6505 67.0951,50.3171 66.5,47.5C 66.56,46.9569 66.8933,46.6236 67.5,46.5C 69.8581,47.1539 71.5248,48.4872 72.5,50.5 Z"/></g>
<g><path style="opacity:1" fill="#0e140e" d="M 66.5,47.5 C 67.0951,50.3171 68.4284,52.6505 70.5,54.5C 70.6399,56.1238 69.9733,57.2904 68.5,58C 70.2603,58.9653 70.5937,60.132 69.5,61.5C 67.244,60.5791 66.244,58.9124 66.5,56.5C 65.5,56.5 64.5,56.5 63.5,56.5C 63.5,57.5 63.5,58.5 63.5,59.5C 61.4176,59.528 59.5843,58.8613 58,57.5C 57.5899,58.9007 57.0899,60.234 56.5,61.5C 54.8863,59.9254 52.8863,59.2587 50.5,59.5C 50.5,59.1667 50.5,58.8333 50.5,58.5C 51.0283,57.2794 51.695,56.1127 52.5,55C 55.0356,54.8138 57.369,54.3138 59.5,53.5C 61.1207,53.2131 62.1207,52.2131 62.5,50.5C 61.3387,48.7763 61.5053,47.1096 63,45.5C 63.7096,46.9733 64.8762,47.6399 66.5,47.5 Z"/></g>
<g><path style="opacity:1" fill="#75786f" d="M 135.5,48.5 C 134.89,49.391 134.557,50.391 134.5,51.5C 134.5,52.1667 134.5,52.8333 134.5,53.5C 133.292,52.7659 131.959,52.4326 130.5,52.5C 130.5,53.5 130.5,54.5 130.5,55.5C 133.533,55.8685 136.2,55.2018 138.5,53.5C 138.5,56.1667 138.5,58.8333 138.5,61.5C 137.833,61.5 137.167,61.5 136.5,61.5C 135.005,61.0113 133.671,60.3446 132.5,59.5C 133.5,59.5 134.5,59.5 135.5,59.5C 135.5,58.5 135.5,57.5 135.5,56.5C 133.801,56.3398 132.134,56.5065 130.5,57C 131.252,57.6708 131.586,58.5041 131.5,59.5C 131.167,59.5 130.833,59.5 130.5,59.5C 129.262,57.7857 128.595,55.7857 128.5,53.5C 126.517,53.1568 125.183,53.8235 124.5,55.5C 123.596,54.791 123.263,53.791 123.5,52.5C 125.314,52.2279 127.314,52.0613 129.5,52C 130.889,49.8123 132.889,48.6456 135.5,48.5 Z"/></g>
<g><path style="opacity:1" fill="#c8c9c5" d="M 109.5,54.5 C 108.508,54.3284 107.842,54.6618 107.5,55.5C 106.662,55.1583 106.328,54.4916 106.5,53.5C 107.167,51.8333 107.833,50.1667 108.5,48.5C 109.151,47.9094 109.818,47.2427 110.5,46.5C 111.395,48.2464 112.062,50.0797 112.5,52C 112.252,53.7491 111.252,54.5824 109.5,54.5 Z"/></g>
<g><path style="opacity:1" fill="#111410" d="M 13.5,50.5 C 13.2178,51.7777 12.5511,52.7777 11.5,53.5C 9.61621,54.3816 8.28288,55.8816 7.5,58C 4.85397,58.4974 2.1873,58.6641 -0.5,58.5C -0.5,55.1667 -0.5,51.8333 -0.5,48.5C 3.07358,48.3089 6.40691,47.3089 9.5,45.5C 13.299,45.6006 14.6323,47.2673 13.5,50.5 Z"/></g>
<g><path style="opacity:1" fill="#b5b2b1" d="M 134.5,51.5 C 137.167,52.1667 137.167,52.8333 134.5,53.5C 134.5,52.8333 134.5,52.1667 134.5,51.5 Z"/></g>
<g><path style="opacity:1" fill="#2d2931" d="M 96.5,51.5 C 96.9926,53.8056 97.3259,56.139 97.5,58.5C 95.326,58.2503 93.6594,57.2503 92.5,55.5C 92.6107,54.8826 92.944,54.3826 93.5,54C 92.1667,52.6667 90.8333,51.3333 89.5,50C 90.4162,49.6258 91.2496,49.1258 92,48.5C 93.3997,49.748 94.8997,50.748 96.5,51.5 Z"/></g>
<g><path style="opacity:1" fill="#8a6273" d="M 104.5,50.5 C 101.337,52.2401 99.3372,54.9068 98.5,58.5C 98.1667,58.5 97.8333,58.5 97.5,58.5C 97.3259,56.139 96.9926,53.8056 96.5,51.5C 96.3505,50.448 96.5172,49.448 97,48.5C 99.4834,50.3381 101.983,51.0047 104.5,50.5 Z"/></g>
<g><path style="opacity:1" fill="#1b2e1b" d="M 45.5,51.5 C 48.5,51.5 51.5,51.5 54.5,51.5C 56.7812,51.0773 58.4479,51.744 59.5,53.5C 57.369,54.3138 55.0356,54.8138 52.5,55C 51.695,56.1127 51.0283,57.2794 50.5,58.5C 49.5084,58.3284 48.8417,58.6618 48.5,59.5C 46.9519,59.1788 46.2852,58.1788 46.5,56.5C 44.6536,56.7778 43.3202,56.1112 42.5,54.5C 43.9935,53.8589 44.9935,52.8589 45.5,51.5 Z"/></g>
<g><path style="opacity:1" fill="#090c06" d="M 21.5,48.5 C 22.2344,49.8775 22.9011,51.3775 23.5,53C 26.7422,53.4061 29.7422,54.2395 32.5,55.5C 29.7079,56.3918 28.3746,58.3918 28.5,61.5C 27.6618,61.8417 27.3284,62.5084 27.5,63.5C 25.3254,63.6822 23.3254,64.3489 21.5,65.5C 19.3175,64.2679 17.1508,64.2679 15,65.5C 13.605,65.2196 12.4383,64.5529 11.5,63.5C 13.6309,62.8313 15.6309,62.1646 17.5,61.5C 17.5,60.8333 17.5,60.1667 17.5,59.5C 16.1722,57.2554 14.3388,56.9221 12,58.5C 11.5357,57.9056 11.369,57.2389 11.5,56.5C 11.5,55.5 11.5,54.5 11.5,53.5C 12.5511,52.7777 13.2178,51.7777 13.5,50.5C 15.8568,50.6633 18.1902,50.4966 20.5,50C 21.056,49.6174 21.3893,49.1174 21.5,48.5 Z"/></g>
<g><path style="opacity:1" fill="#5b5b55" d="M 121.5,59.5 C 121.44,60.0431 121.107,60.3764 120.5,60.5C 119.828,59.0508 119.161,57.7175 118.5,56.5C 116.663,56.3605 116.33,55.6939 117.5,54.5C 118.833,55.8333 120.167,55.8333 121.5,54.5C 122.434,56.0948 122.434,57.7615 121.5,59.5 Z"/></g>
<g><path style="opacity:1" fill="#cdc9c6" d="M 132.5,59.5 C 132.167,59.5 131.833,59.5 131.5,59.5C 131.586,58.5041 131.252,57.6708 130.5,57C 132.134,56.5065 133.801,56.3398 135.5,56.5C 135.5,57.5 135.5,58.5 135.5,59.5C 134.5,59.5 133.5,59.5 132.5,59.5 Z"/></g>
<g><path style="opacity:1" fill="#b9889b" d="M 104.5,50.5 C 104.932,51.7095 105.599,52.7095 106.5,53.5C 106.328,54.4916 106.662,55.1583 107.5,55.5C 107.747,57.8583 107.081,59.8583 105.5,61.5C 104.833,61.5 104.167,61.5 103.5,61.5C 102.167,61.5 100.833,61.5 99.5,61.5C 98.8902,60.609 98.5569,59.609 98.5,58.5C 99.3372,54.9068 101.337,52.2401 104.5,50.5 Z"/></g>
<g><path style="opacity:1" fill="#918e89" d="M 109.5,54.5 C 109.389,55.1174 109.056,55.6174 108.5,56C 110.596,56.7365 112.263,57.9032 113.5,59.5C 112.178,59.67 111.011,59.3366 110,58.5C 109.487,59.5266 108.987,60.5266 108.5,61.5C 107.566,62.5676 107.232,63.901 107.5,65.5C 106.833,64.1667 106.167,62.8333 105.5,61.5C 107.081,59.8583 107.747,57.8583 107.5,55.5C 107.842,54.6618 108.508,54.3284 109.5,54.5 Z"/></g>
<g><path style="opacity:1" fill="#323330" d="M 11.5,53.5 C 11.5,54.5 11.5,55.5 11.5,56.5C 10.678,58.3885 9.84468,60.3885 9,62.5C 8.37405,60.0087 7.54072,60.0087 6.5,62.5C 4.10031,62.8425 1.76697,62.1759 -0.5,60.5C -0.5,59.8333 -0.5,59.1667 -0.5,58.5C 2.1873,58.6641 4.85397,58.4974 7.5,58C 8.28288,55.8816 9.61621,54.3816 11.5,53.5 Z"/></g>
<g><path style="opacity:1" fill="#63615d" d="M 17.5,59.5 C 17.5,60.1667 17.5,60.8333 17.5,61.5C 14.8333,60.8333 14.8333,60.1667 17.5,59.5 Z"/></g>
<g><path style="opacity:1" fill="#615a53" d="M 92.5,55.5 C 93.6594,57.2503 95.326,58.2503 97.5,58.5C 97.8333,58.5 98.1667,58.5 98.5,58.5C 98.5569,59.609 98.8902,60.609 99.5,61.5C 99.1667,61.5 98.8333,61.5 98.5,61.5C 96.8333,62.1667 95.1667,62.8333 93.5,63.5C 91.5976,64.5109 89.5976,64.6776 87.5,64C 86.0268,61.5524 84.6935,59.0524 83.5,56.5C 86.0973,55.3507 88.5973,55.6841 91,57.5C 92.0299,57.1639 92.5299,56.4972 92.5,55.5 Z"/></g>
<g><path style="opacity:1" fill="#5a5b53" d="M 113.5,59.5 C 110.742,60.9665 111.075,61.6332 114.5,61.5C 113.759,63.3542 112.759,65.0209 111.5,66.5C 109.972,65.1979 108.972,63.5313 108.5,61.5C 108.987,60.5266 109.487,59.5266 110,58.5C 111.011,59.3366 112.178,59.67 113.5,59.5 Z"/></g>
<g><path style="opacity:1" fill="#323832" d="M 50.5,59.5 C 52.8863,59.2587 54.8863,59.9254 56.5,61.5C 55.1979,63.0276 53.5313,64.0276 51.5,64.5C 50.8333,64.1667 50.1667,63.8333 49.5,63.5C 49.8333,62.1667 50.1667,60.8333 50.5,59.5 Z"/></g>
<g><path style="opacity:1" fill="#252b20" d="M 130.5,59.5 C 130.833,59.5 131.167,59.5 131.5,59.5C 131.833,59.5 132.167,59.5 132.5,59.5C 133.671,60.3446 135.005,61.0113 136.5,61.5C 134.12,63.2367 132.453,65.57 131.5,68.5C 133.419,67.9127 135.419,67.9127 137.5,68.5C 133.5,69.1667 133.5,69.8333 137.5,70.5C 137.5,71.1667 137.167,71.5 136.5,71.5C 133.849,71.9747 131.182,73.3081 128.5,75.5C 127.808,74.9747 127.308,74.3081 127,73.5C 125.959,75.3115 124.793,75.6448 123.5,74.5C 122.167,72.1667 122.167,69.8333 123.5,67.5C 124.822,67.33 125.989,67.6634 127,68.5C 127.464,67.9056 127.631,67.2389 127.5,66.5C 128.88,67.7065 130.047,67.3731 131,65.5C 131.49,63.4546 131.323,61.4546 130.5,59.5 Z"/></g>
<g><path style="opacity:1" fill="#0c110b" d="M 11.5,56.5 C 11.369,57.2389 11.5357,57.9056 12,58.5C 14.3388,56.9221 16.1722,57.2554 17.5,59.5C 14.8333,60.1667 14.8333,60.8333 17.5,61.5C 15.6309,62.1646 13.6309,62.8313 11.5,63.5C 12.4383,64.5529 13.605,65.2196 15,65.5C 17.1508,64.2679 19.3175,64.2679 21.5,65.5C 23.3254,64.3489 25.3254,63.6822 27.5,63.5C 27.4725,66.9164 26.4725,69.9164 24.5,72.5C 21.6126,74.3221 19.2792,73.8221 17.5,71C 11.5292,69.2645 5.52917,69.0978 -0.5,70.5C -0.5,67.1667 -0.5,63.8333 -0.5,60.5C 1.76697,62.1759 4.10031,62.8425 6.5,62.5C 7.54072,60.0087 8.37405,60.0087 9,62.5C 9.84468,60.3885 10.678,58.3885 11.5,56.5 Z"/></g>
<g><path style="opacity:1" fill="#0d0f0b" d="M 75.5,41.5 C 76.4916,41.3284 77.1583,41.6618 77.5,42.5C 76.2072,44.3635 76.2072,46.3635 77.5,48.5C 78.2975,48.0431 78.6309,47.3764 78.5,46.5C 79.404,47.209 79.7373,48.209 79.5,49.5C 79.0342,53.6372 79.0342,57.9705 79.5,62.5C 76.7589,64.9754 74.7589,67.9754 73.5,71.5C 72.5,71.5 71.5,71.5 70.5,71.5C 69.8333,67.5 69.1667,67.5 68.5,71.5C 64.8649,71.6556 64.5315,72.8223 67.5,75C 68.448,75.4828 69.448,75.6495 70.5,75.5C 70.6287,77.2161 70.962,78.8828 71.5,80.5C 71.5,80.8333 71.5,81.1667 71.5,81.5C 69.3184,84.0429 67.1517,84.0429 65,81.5C 64.6174,82.056 64.1174,82.3893 63.5,82.5C 62.6502,80.27 61.6502,77.9367 60.5,75.5C 60.8076,73.076 60.4742,70.7427 59.5,68.5C 56.5276,67.6805 53.8609,66.3471 51.5,64.5C 53.5313,64.0276 55.1979,63.0276 56.5,61.5C 57.0899,60.234 57.5899,58.9007 58,57.5C 59.5843,58.8613 61.4176,59.528 63.5,59.5C 63.5,58.5 63.5,57.5 63.5,56.5C 64.5,56.5 65.5,56.5 66.5,56.5C 66.244,58.9124 67.244,60.5791 69.5,61.5C 70.5937,60.132 70.2603,58.9653 68.5,58C 69.9733,57.2904 70.6399,56.1238 70.5,54.5C 71.7914,53.5272 71.7914,52.5272 70.5,51.5C 70.9569,50.7025 71.6236,50.3691 72.5,50.5C 73.1499,50.8039 73.8165,51.1373 74.5,51.5C 75.5679,48.9019 75.2346,46.4019 73.5,44C 74.0556,42.9889 74.7222,42.1556 75.5,41.5 Z"/></g>
<g><path style="opacity:1" fill="#9f8d7d" d="M 35.5,58.5 C 35.8333,58.5 36.1667,58.5 36.5,58.5C 36.5106,60.0174 37.1772,61.1841 38.5,62C 41.8168,62.4983 45.1501,62.665 48.5,62.5C 48.5,61.5 48.5,60.5 48.5,59.5C 48.8417,58.6618 49.5084,58.3284 50.5,58.5C 50.5,58.8333 50.5,59.1667 50.5,59.5C 50.1667,60.8333 49.8333,62.1667 49.5,63.5C 49.0618,63.4346 48.7284,63.6012 48.5,64C 49.914,65.9935 50.914,68.1602 51.5,70.5C 48.4017,70.4125 48.0684,70.9125 50.5,72C 49.1374,75.8951 47.1374,79.3951 44.5,82.5C 43.391,82.5569 42.391,82.8902 41.5,83.5C 41.1667,83.5 40.8333,83.5 40.5,83.5C 40.3284,82.5084 40.6618,81.8417 41.5,81.5C 42.3764,81.6309 43.0431,81.2975 43.5,80.5C 44.453,77.2988 45.7863,74.2988 47.5,71.5C 46.2299,70.7124 45.2299,69.7124 44.5,68.5C 44.5,67.1667 44.5,65.8333 44.5,64.5C 42.6412,64.4609 41.3079,65.2942 40.5,67C 38.8659,67.4935 37.1992,67.6602 35.5,67.5C 35.5,66.5 35.5,65.5 35.5,64.5C 34.5,64.5 33.5,64.5 32.5,64.5C 32.0246,61.6874 33.0246,59.6874 35.5,58.5 Z"/></g>
<g><path style="opacity:1" fill="#e1e0dd" d="M 103.5,61.5 C 104.167,61.5 104.833,61.5 105.5,61.5C 106.167,62.8333 106.833,64.1667 107.5,65.5C 107.5,65.8333 107.5,66.1667 107.5,66.5C 106.833,66.5 106.167,66.5 105.5,66.5C 105.167,66.5 104.833,66.5 104.5,66.5C 103.699,64.9582 103.366,63.2915 103.5,61.5 Z"/></g>
<g><path style="opacity:1" fill="#6f6e6d" d="M 79.5,49.5 C 80.5512,51.9287 81.8845,54.262 83.5,56.5C 84.6935,59.0524 86.0268,61.5524 87.5,64C 89.5976,64.6776 91.5976,64.5109 93.5,63.5C 94.5109,65.4024 94.6776,67.4024 94,69.5C 93.3333,68.1667 92.6667,68.1667 92,69.5C 91.7104,67.9559 91.0437,66.6226 90,65.5C 89.3828,66.4491 89.5494,67.2825 90.5,68C 89.2068,68.49 87.8734,68.6567 86.5,68.5C 86.943,63.7345 85.443,62.7345 82,65.5C 81.2352,65.4301 80.7352,65.0967 80.5,64.5C 80.6716,63.5084 80.3382,62.8417 79.5,62.5C 79.0342,57.9705 79.0342,53.6372 79.5,49.5 Z"/></g>
<g><path style="opacity:1" fill="#4d4c45" d="M 119.5,69.5 C 118.508,69.6716 117.842,69.3382 117.5,68.5C 117.158,67.6618 116.492,67.3284 115.5,67.5C 117.006,62.939 119.006,62.6057 121.5,66.5C 120.807,67.5178 120.141,68.5178 119.5,69.5 Z"/></g>
<g><path style="opacity:1" fill="#7f7a73" d="M 127.5,66.5 C 127.631,67.2389 127.464,67.9056 127,68.5C 125.989,67.6634 124.822,67.33 123.5,67.5C 123.094,65.8908 123.094,64.5575 123.5,63.5C 124.852,64.5244 126.185,65.5244 127.5,66.5 Z"/></g>
<g><path style="opacity:1" fill="#c6c4c9" d="M 49.5,63.5 C 50.1667,63.8333 50.8333,64.1667 51.5,64.5C 53.8609,66.3471 56.5276,67.6805 59.5,68.5C 60.4742,70.7427 60.8076,73.076 60.5,75.5C 59.8333,75.5 59.5,75.8333 59.5,76.5C 57.0872,74.9493 54.4206,74.2826 51.5,74.5C 51.5,73.1667 51.5,71.8333 51.5,70.5C 50.914,68.1602 49.914,65.9935 48.5,64C 48.7284,63.6012 49.0618,63.4346 49.5,63.5 Z"/></g>
<g><path style="opacity:1" fill="#0f110c" d="M 130.5,59.5 C 131.323,61.4546 131.49,63.4546 131,65.5C 130.047,67.3731 128.88,67.7065 127.5,66.5C 126.185,65.5244 124.852,64.5244 123.5,63.5C 123.094,64.5575 123.094,65.8908 123.5,67.5C 122.167,69.8333 122.167,72.1667 123.5,74.5C 121.933,73.3192 121.099,71.6526 121,69.5C 120.804,71.2861 119.971,72.6195 118.5,73.5C 118.167,73 117.833,72.5 117.5,72C 118.056,70.9889 118.722,70.1556 119.5,69.5C 120.141,68.5178 120.807,67.5178 121.5,66.5C 119.006,62.6057 117.006,62.939 115.5,67.5C 113.901,67.7678 112.568,67.4345 111.5,66.5C 112.759,65.0209 113.759,63.3542 114.5,61.5C 114.34,59.8008 114.506,58.1341 115,56.5C 116.292,57.7911 117.458,57.7911 118.5,56.5C 119.161,57.7175 119.828,59.0508 120.5,60.5C 121.107,60.3764 121.44,60.0431 121.5,59.5C 123.262,58.7377 124.262,57.4044 124.5,55.5C 125.183,53.8235 126.517,53.1568 128.5,53.5C 128.595,55.7857 129.262,57.7857 130.5,59.5 Z"/></g>
<g><path style="opacity:1" fill="#626a57" d="M 105.5,66.5 C 106.167,66.5 106.833,66.5 107.5,66.5C 109.399,68.2507 110.733,70.4173 111.5,73C 111.001,76.0075 110.001,76.1741 108.5,73.5C 106.931,73.8152 105.265,73.8152 103.5,73.5C 106.173,71.8072 106.84,69.4738 105.5,66.5 Z"/></g>
<g><path style="opacity:1" fill="#a39f97" d="M 137.5,68.5 C 137.5,69.1667 137.5,69.8333 137.5,70.5C 133.5,69.8333 133.5,69.1667 137.5,68.5 Z"/></g>
<g><path style="opacity:1" fill="#9b7d67" d="M 32.5,55.5 C 33.8333,56.1667 34.8333,57.1667 35.5,58.5C 33.0246,59.6874 32.0246,61.6874 32.5,64.5C 33.5,64.5 34.5,64.5 35.5,64.5C 35.5,65.5 35.5,66.5 35.5,67.5C 37.1992,67.6602 38.8659,67.4935 40.5,67C 41.3079,65.2942 42.6412,64.4609 44.5,64.5C 44.5,65.8333 44.5,67.1667 44.5,68.5C 41.7081,68.4521 39.8747,69.7854 39,72.5C 37.6912,70.0243 35.8579,68.0243 33.5,66.5C 32.5713,67.6888 32.238,69.0222 32.5,70.5C 31.6909,68.7078 31.1909,66.7078 31,64.5C 30.7216,65.4158 30.2216,66.0825 29.5,66.5C 28.962,64.8828 28.6287,63.2161 28.5,61.5C 28.3746,58.3918 29.7079,56.3918 32.5,55.5 Z"/></g>
<g><path style="opacity:1" fill="#2f3031" d="M 104.5,66.5 C 104.833,66.5 105.167,66.5 105.5,66.5C 106.84,69.4738 106.173,71.8072 103.5,73.5C 103.198,70.9407 103.532,68.6074 104.5,66.5 Z"/></g>
<g><path style="opacity:1" fill="#888685" d="M 98.5,61.5 C 98.1788,63.0481 97.1788,63.7148 95.5,63.5C 96.3653,68.4404 94.6986,72.107 90.5,74.5C 89.2638,73.7542 87.9305,73.4208 86.5,73.5C 85.8333,73.1667 85.1667,72.8333 84.5,72.5C 83.2666,69.702 81.2666,67.5353 78.5,66C 79.0442,65.2828 79.7109,64.7828 80.5,64.5C 80.7352,65.0967 81.2352,65.4301 82,65.5C 85.443,62.7345 86.943,63.7345 86.5,68.5C 87.8734,68.6567 89.2068,68.49 90.5,68C 89.5494,67.2825 89.3828,66.4491 90,65.5C 91.0437,66.6226 91.7104,67.9559 92,69.5C 92.6667,68.1667 93.3333,68.1667 94,69.5C 94.6776,67.4024 94.5109,65.4024 93.5,63.5C 95.1667,62.8333 96.8333,62.1667 98.5,61.5 Z"/></g>
<g><path style="opacity:1" fill="#6d371c" d="M 32.5,70.5 C 33.1667,71.8333 33.8333,73.1667 34.5,74.5C 33.4732,75.8478 32.1398,76.3478 30.5,76C 28.771,74.2111 28.1043,72.0444 28.5,69.5C 28.5569,68.391 28.8902,67.391 29.5,66.5C 30.2216,66.0825 30.7216,65.4158 31,64.5C 31.1909,66.7078 31.6909,68.7078 32.5,70.5 Z"/></g>
<g><path style="opacity:1" fill="#111610" d="M 24.5,72.5 C 23.8413,75.4552 23.5079,78.4552 23.5,81.5C 21.5648,82.1495 19.5648,82.4828 17.5,82.5C 18.7017,80.6075 20.035,78.7742 21.5,77C 17.9031,76.0284 14.2364,75.5284 10.5,75.5C 6.41467,75.5872 2.748,76.5872 -0.5,78.5C -0.5,75.8333 -0.5,73.1667 -0.5,70.5C 5.52917,69.0978 11.5292,69.2645 17.5,71C 19.2792,73.8221 21.6126,74.3221 24.5,72.5 Z"/></g>
<g><path style="opacity:1" fill="#32352f" d="M 73.5,71.5 C 72.6016,72.1577 71.6016,72.8243 70.5,73.5C 71.9459,75.6179 72.6126,77.9512 72.5,80.5C 72.1667,80.5 71.8333,80.5 71.5,80.5C 70.962,78.8828 70.6287,77.2161 70.5,75.5C 69.448,75.6495 68.448,75.4828 67.5,75C 64.5315,72.8223 64.8649,71.6556 68.5,71.5C 69.1667,67.5 69.8333,67.5 70.5,71.5C 71.5,71.5 72.5,71.5 73.5,71.5 Z"/></g>
<g><path style="opacity:1" fill="#9ea9b8" d="M 79.5,62.5 C 80.3382,62.8417 80.6716,63.5084 80.5,64.5C 79.7109,64.7828 79.0442,65.2828 78.5,66C 81.2666,67.5353 83.2666,69.702 84.5,72.5C 83.6084,75.0658 81.9418,77.0658 79.5,78.5C 79.9767,79.4776 80.6433,80.3109 81.5,81C 78.8548,83.7477 78.1881,86.9144 79.5,90.5C 77.5648,89.8505 75.5648,89.5172 73.5,89.5C 73.9528,88.5416 74.6195,87.7083 75.5,87C 74.0735,84.9546 73.0735,82.7879 72.5,80.5C 72.6126,77.9512 71.9459,75.6179 70.5,73.5C 71.6016,72.8243 72.6016,72.1577 73.5,71.5C 74.7589,67.9754 76.7589,64.9754 79.5,62.5 Z"/></g>
<g><path style="opacity:1" fill="#7a5d46" d="M 44.5,68.5 C 45.2299,69.7124 46.2299,70.7124 47.5,71.5C 45.7863,74.2988 44.453,77.2988 43.5,80.5C 43.0431,81.2975 42.3764,81.6309 41.5,81.5C 41.6107,80.8826 41.944,80.3826 42.5,80C 40.6874,80.0464 39.0207,79.8797 37.5,79.5C 36.3037,77.8554 35.3037,76.1887 34.5,74.5C 33.8333,73.1667 33.1667,71.8333 32.5,70.5C 32.238,69.0222 32.5713,67.6888 33.5,66.5C 35.8579,68.0243 37.6912,70.0243 39,72.5C 39.8747,69.7854 41.7081,68.4521 44.5,68.5 Z"/></g>
<g><path style="opacity:1" fill="#131611" d="M 108.5,61.5 C 108.972,63.5313 109.972,65.1979 111.5,66.5C 112.568,67.4345 113.901,67.7678 115.5,67.5C 116.492,67.3284 117.158,67.6618 117.5,68.5C 115.866,69.2066 114.532,70.3732 113.5,72C 116.552,75.1862 120.218,77.3529 124.5,78.5C 121.821,78.0925 119.154,78.5925 116.5,80C 117.895,82.0748 117.562,83.9081 115.5,85.5C 115.667,85.8333 115.833,86.1667 116,86.5C 117.667,85.1667 119.333,83.8333 121,82.5C 121.483,83.448 121.649,84.448 121.5,85.5C 119.824,86.1834 119.157,87.5168 119.5,89.5C 121.179,89.7148 122.179,89.0481 122.5,87.5C 124.153,87.6596 125.486,88.3263 126.5,89.5C 121.953,91.0538 117.62,90.3871 113.5,87.5C 113.002,94.1246 111.669,100.458 109.5,106.5C 109.167,106.5 108.833,106.5 108.5,106.5C 109.265,103.904 109.599,101.237 109.5,98.5C 112.424,91.0072 112.091,83.6738 108.5,76.5C 108.5,75.5 108.5,74.5 108.5,73.5C 110.001,76.1741 111.001,76.0075 111.5,73C 110.733,70.4173 109.399,68.2507 107.5,66.5C 107.5,66.1667 107.5,65.8333 107.5,65.5C 107.232,63.901 107.566,62.5676 108.5,61.5 Z"/></g>
<g><path style="opacity:1" fill="#a1a09e" d="M 98.5,61.5 C 98.8333,61.5 99.1667,61.5 99.5,61.5C 100.833,61.5 102.167,61.5 103.5,61.5C 103.366,63.2915 103.699,64.9582 104.5,66.5C 103.532,68.6074 103.198,70.9407 103.5,73.5C 102.883,73.3893 102.383,73.056 102,72.5C 101.503,70.1902 101.337,67.8568 101.5,65.5C 100.167,65.5 98.8333,65.5 97.5,65.5C 98.0525,67.9393 98.0525,70.2727 97.5,72.5C 98.1368,74.3031 99.3035,75.6364 101,76.5C 101.494,78.1341 101.66,79.8008 101.5,81.5C 100.178,81.67 99.0113,81.3366 98,80.5C 96.4253,71.3237 95.4253,71.3237 95,80.5C 93.5098,81.7279 92.0098,81.7279 90.5,80.5C 90.8733,77.0676 89.54,74.7342 86.5,73.5C 87.9305,73.4208 89.2638,73.7542 90.5,74.5C 94.6986,72.107 96.3653,68.4404 95.5,63.5C 97.1788,63.7148 98.1788,63.0481 98.5,61.5 Z"/></g>
<g><path style="opacity:1" fill="#080c07" d="M 17.5,82.5 C 16.596,83.209 16.2627,84.209 16.5,85.5C 14.5,85.5 12.5,85.5 10.5,85.5C 10.5,86.5 10.5,87.5 10.5,88.5C 8.44561,87.3914 6.27894,86.3914 4,85.5C 3.05456,85.9054 2.38789,86.572 2,87.5C 1.28885,85.6332 1.78885,84.1332 3.5,83C 2.07153,82.4209 0.738195,82.5876 -0.5,83.5C -0.5,81.8333 -0.5,80.1667 -0.5,78.5C 2.748,76.5872 6.41467,75.5872 10.5,75.5C 14.2364,75.5284 17.9031,76.0284 21.5,77C 20.035,78.7742 18.7017,80.6075 17.5,82.5 Z"/></g>
<g><path style="opacity:1" fill="#bbb9b8" d="M 103.5,73.5 C 105.265,73.8152 106.931,73.8152 108.5,73.5C 108.5,74.5 108.5,75.5 108.5,76.5C 107.883,76.3893 107.383,76.056 107,75.5C 105.653,79.375 104.486,79.375 103.5,75.5C 101.423,80.1771 102.756,83.1771 107.5,84.5C 108.124,88.005 107.124,90.8383 104.5,93C 105.66,94.9975 105.66,96.8308 104.5,98.5C 104.631,97.7611 104.464,97.0944 104,96.5C 102.989,97.3366 101.822,97.67 100.5,97.5C 99.0825,93.9975 98.4158,90.3309 98.5,86.5C 96.5,86.5 94.5,86.5 92.5,86.5C 92.5,85.5 92.5,84.5 92.5,83.5C 87.6405,83.639 84.9738,81.3057 84.5,76.5C 86.1667,76.5 87.8333,76.5 89.5,76.5C 89.2322,78.099 89.5655,79.4324 90.5,80.5C 92.0098,81.7279 93.5098,81.7279 95,80.5C 95.4253,71.3237 96.4253,71.3237 98,80.5C 99.0113,81.3366 100.178,81.67 101.5,81.5C 101.66,79.8008 101.494,78.1341 101,76.5C 99.3035,75.6364 98.1368,74.3031 97.5,72.5C 98.0525,70.2727 98.0525,67.9393 97.5,65.5C 98.8333,65.5 100.167,65.5 101.5,65.5C 101.337,67.8568 101.503,70.1902 102,72.5C 102.383,73.056 102.883,73.3893 103.5,73.5 Z"/></g>
<g><path style="opacity:1" fill="#080b06" d="M 136.5,61.5 C 137.167,61.5 137.833,61.5 138.5,61.5C 138.5,70.8333 138.5,80.1667 138.5,89.5C 137.221,90.968 135.554,91.6347 133.5,91.5C 133.116,93.9294 132.449,96.2627 131.5,98.5C 129.901,98.2322 128.568,98.5655 127.5,99.5C 127.5,99.8333 127.5,100.167 127.5,100.5C 125.253,100.957 123.253,101.957 121.5,103.5C 120.893,103.376 120.56,103.043 120.5,102.5C 118.621,101.095 118.288,99.4284 119.5,97.5C 122.497,96.7518 125.497,96.0851 128.5,95.5C 129.185,89.1951 128.018,89.1951 125,95.5C 124.781,94.062 124.281,92.7287 123.5,91.5C 120.833,93.5 118.5,95.8333 116.5,98.5C 116.888,103.088 116.888,107.754 116.5,112.5C 115.5,112.5 114.5,112.5 113.5,112.5C 113.5,110.5 113.5,108.5 113.5,106.5C 112.167,106.5 110.833,106.5 109.5,106.5C 111.669,100.458 113.002,94.1246 113.5,87.5C 117.62,90.3871 121.953,91.0538 126.5,89.5C 127.721,88.9717 128.887,88.305 130,87.5C 130.333,84.1667 130.667,80.8333 131,77.5C 133.041,78.4231 135.208,78.7564 137.5,78.5C 137.326,76.139 136.993,73.8056 136.5,71.5C 137.167,71.5 137.5,71.1667 137.5,70.5C 137.5,69.8333 137.5,69.1667 137.5,68.5C 135.419,67.9127 133.419,67.9127 131.5,68.5C 132.453,65.57 134.12,63.2367 136.5,61.5 Z"/></g>
<g><path style="opacity:1" fill="#0b0f09" d="M 117.5,68.5 C 117.842,69.3382 118.508,69.6716 119.5,69.5C 118.722,70.1556 118.056,70.9889 117.5,72C 117.833,72.5 118.167,73 118.5,73.5C 119.971,72.6195 120.804,71.2861 121,69.5C 121.099,71.6526 121.933,73.3192 123.5,74.5C 124.793,75.6448 125.959,75.3115 127,73.5C 127.308,74.3081 127.808,74.9747 128.5,75.5C 131.182,73.3081 133.849,71.9747 136.5,71.5C 136.993,73.8056 137.326,76.139 137.5,78.5C 135.208,78.7564 133.041,78.4231 131,77.5C 130.667,80.8333 130.333,84.1667 130,87.5C 128.887,88.305 127.721,88.9717 126.5,89.5C 125.486,88.3263 124.153,87.6596 122.5,87.5C 122.672,86.5084 122.338,85.8417 121.5,85.5C 121.649,84.448 121.483,83.448 121,82.5C 119.333,83.8333 117.667,85.1667 116,86.5C 115.833,86.1667 115.667,85.8333 115.5,85.5C 117.562,83.9081 117.895,82.0748 116.5,80C 119.154,78.5925 121.821,78.0925 124.5,78.5C 120.218,77.3529 116.552,75.1862 113.5,72C 114.532,70.3732 115.866,69.2066 117.5,68.5 Z"/></g>
<g><path style="opacity:1" fill="#50331c" d="M 28.5,69.5 C 28.1043,72.0444 28.771,74.2111 30.5,76C 32.1398,76.3478 33.4732,75.8478 34.5,74.5C 35.3037,76.1887 36.3037,77.8554 37.5,79.5C 39.0207,79.8797 40.6874,80.0464 42.5,80C 41.944,80.3826 41.6107,80.8826 41.5,81.5C 40.6618,81.8417 40.3284,82.5084 40.5,83.5C 36.908,84.7644 33.2413,85.7644 29.5,86.5C 28.7611,86.631 28.0944,86.4643 27.5,86C 30.7816,84.154 30.6149,81.9873 27,79.5C 26.8333,78.1667 26.6667,76.8333 26.5,75.5C 26.361,73.1175 27.0277,71.1175 28.5,69.5 Z"/></g>
<g><path style="opacity:1" fill="#b0ada6" d="M 51.5,70.5 C 51.5,71.8333 51.5,73.1667 51.5,74.5C 54.4206,74.2826 57.0872,74.9493 59.5,76.5C 59.601,80.7272 57.601,83.0605 53.5,83.5C 50.676,83.9893 49.3426,85.656 49.5,88.5C 48.1266,88.3433 46.7932,88.51 45.5,89C 43.9752,90.793 42.6418,92.6263 41.5,94.5C 40.8333,95.1667 40.1667,95.8333 39.5,96.5C 42.3201,92.0962 43.9868,87.4295 44.5,82.5C 47.1374,79.3951 49.1374,75.8951 50.5,72C 48.0684,70.9125 48.4017,70.4125 51.5,70.5 Z"/></g>
<g><path style="opacity:1" fill="#2c3330" d="M 60.5,75.5 C 61.6502,77.9367 62.6502,80.27 63.5,82.5C 61.9698,84.8769 60.4698,84.8769 59,82.5C 58.6667,83.5 58.3333,84.5 58,85.5C 56.8904,83.9632 55.3904,83.2965 53.5,83.5C 57.601,83.0605 59.601,80.7272 59.5,76.5C 59.5,75.8333 59.8333,75.5 60.5,75.5 Z"/></g>
<g><path style="opacity:1" fill="#121912" d="M 23.5,81.5 C 25.0775,84.4824 24.7442,87.1491 22.5,89.5C 22.5,89.8333 22.5,90.1667 22.5,90.5C 21.5269,92.9479 21.1936,95.6146 21.5,98.5C 19.3944,98.321 17.7277,97.321 16.5,95.5C 17.8333,94.8333 19.1667,94.1667 20.5,93.5C 18.3633,92.9202 16.53,91.9202 15,90.5C 13.3005,91.4061 11.4672,91.7394 9.5,91.5C 8.76109,91.631 8.09442,91.4643 7.5,91C 8.57075,90.1482 9.57075,89.3149 10.5,88.5C 10.5,87.5 10.5,86.5 10.5,85.5C 12.5,85.5 14.5,85.5 16.5,85.5C 16.2627,84.209 16.596,83.209 17.5,82.5C 19.5648,82.4828 21.5648,82.1495 23.5,81.5 Z"/></g>
<g><path style="opacity:1" fill="#42382c" d="M 28.5,61.5 C 28.6287,63.2161 28.962,64.8828 29.5,66.5C 28.8902,67.391 28.5569,68.391 28.5,69.5C 27.0277,71.1175 26.361,73.1175 26.5,75.5C 26.6667,76.8333 26.8333,78.1667 27,79.5C 30.6149,81.9873 30.7816,84.154 27.5,86C 28.0944,86.4643 28.7611,86.631 29.5,86.5C 27.3964,87.9117 25.0631,88.9117 22.5,89.5C 24.7442,87.1491 25.0775,84.4824 23.5,81.5C 23.5079,78.4552 23.8413,75.4552 24.5,72.5C 26.4725,69.9164 27.4725,66.9164 27.5,63.5C 27.3284,62.5084 27.6618,61.8417 28.5,61.5 Z"/></g>
<g><path style="opacity:1" fill="#6a727e" d="M 72.5,80.5 C 73.0735,82.7879 74.0735,84.9546 75.5,87C 74.6195,87.7083 73.9528,88.5416 73.5,89.5C 73.6107,90.1174 73.944,90.6174 74.5,91C 73.8622,94.9352 73.1955,98.7685 72.5,102.5C 71.297,95.1743 71.297,87.841 72.5,80.5 Z"/></g>
<g><path style="opacity:1" fill="#a7a3a2" d="M 84.5,72.5 C 85.1667,72.8333 85.8333,73.1667 86.5,73.5C 89.54,74.7342 90.8733,77.0676 90.5,80.5C 89.5655,79.4324 89.2322,78.099 89.5,76.5C 87.8333,76.5 86.1667,76.5 84.5,76.5C 84.9738,81.3057 87.6405,83.639 92.5,83.5C 92.5,84.5 92.5,85.5 92.5,86.5C 94.5,86.5 96.5,86.5 98.5,86.5C 98.4158,90.3309 99.0825,93.9975 100.5,97.5C 101.822,97.67 102.989,97.3366 104,96.5C 104.464,97.0944 104.631,97.7611 104.5,98.5C 104.488,101.142 105.821,102.475 108.5,102.5C 106.733,104.938 105.399,107.605 104.5,110.5C 103.603,111.598 102.77,111.598 102,110.5C 102.214,105.29 100.88,100.623 98,96.5C 97.3333,97.8333 96.6667,97.8333 96,96.5C 95.5172,95.552 95.3505,94.552 95.5,93.5C 95.528,91.4176 94.8613,89.5843 93.5,88C 91.2346,86.8822 88.9013,86.0488 86.5,85.5C 87.352,92.2266 84.6853,94.3932 78.5,92C 79.056,91.6174 79.3893,91.1174 79.5,90.5C 78.1881,86.9144 78.8548,83.7477 81.5,81C 80.6433,80.3109 79.9767,79.4776 79.5,78.5C 81.9418,77.0658 83.6084,75.0658 84.5,72.5 Z"/></g>
<g><path style="opacity:1" fill="#c2c1c1" d="M 108.5,76.5 C 112.091,83.6738 112.424,91.0072 109.5,98.5C 108.566,99.5676 108.232,100.901 108.5,102.5C 105.821,102.475 104.488,101.142 104.5,98.5C 105.66,96.8308 105.66,94.9975 104.5,93C 107.124,90.8383 108.124,88.005 107.5,84.5C 102.756,83.1771 101.423,80.1771 103.5,75.5C 104.486,79.375 105.653,79.375 107,75.5C 107.383,76.056 107.883,76.3893 108.5,76.5 Z"/></g>
<g><path style="opacity:1" fill="#63574c" d="M 121.5,85.5 C 122.338,85.8417 122.672,86.5084 122.5,87.5C 122.179,89.0481 121.179,89.7148 119.5,89.5C 119.157,87.5168 119.824,86.1834 121.5,85.5 Z"/></g>
<g><path style="opacity:1" fill="#131813" d="M 10.5,88.5 C 9.57075,89.3149 8.57075,90.1482 7.5,91C 8.09442,91.4643 8.76109,91.631 9.5,91.5C 9.72682,93.9975 11.0602,95.6641 13.5,96.5C 12.0977,97.8425 12.4311,98.6758 14.5,99C 12.6854,99.7568 11.0188,100.59 9.5,101.5C 7.74395,102.552 7.07729,104.219 7.5,106.5C 6.0234,103.078 3.35673,101.078 -0.5,100.5C -0.5,94.8333 -0.5,89.1667 -0.5,83.5C 0.738195,82.5876 2.07153,82.4209 3.5,83C 1.78885,84.1332 1.28885,85.6332 2,87.5C 2.38789,86.572 3.05456,85.9054 4,85.5C 6.27894,86.3914 8.44561,87.3914 10.5,88.5 Z"/></g>
<g><path style="opacity:1" fill="#0e100c" d="M 71.5,81.5 C 69.8788,85.397 67.7121,89.0637 65,92.5C 63.5699,95.3527 62.7366,98.3527 62.5,101.5C 60.3657,99.5799 58.0323,97.9132 55.5,96.5C 55.5,95.8333 55.1667,95.5 54.5,95.5C 54.3588,92.0323 52.6921,89.699 49.5,88.5C 49.3426,85.656 50.676,83.9893 53.5,83.5C 55.3904,83.2965 56.8904,83.9632 58,85.5C 58.3333,84.5 58.6667,83.5 59,82.5C 60.4698,84.8769 61.9698,84.8769 63.5,82.5C 64.1174,82.3893 64.6174,82.056 65,81.5C 67.1517,84.0429 69.3184,84.0429 71.5,81.5 Z"/></g>
<g><path style="opacity:1" fill="#898785" d="M 40.5,83.5 C 40.8333,83.5 41.1667,83.5 41.5,83.5C 40.8772,86.5964 39.8772,89.5964 38.5,92.5C 37.7261,93.7112 36.8928,93.7112 36,92.5C 35.4768,94.2226 34.4768,95.556 33,96.5C 29.6323,94.3059 26.1323,92.3059 22.5,90.5C 22.5,90.1667 22.5,89.8333 22.5,89.5C 25.0631,88.9117 27.3964,87.9117 29.5,86.5C 33.2413,85.7644 36.908,84.7644 40.5,83.5 Z"/></g>
<g><path style="opacity:1" fill="#d3d4d0" d="M 49.5,88.5 C 52.6921,89.699 54.3588,92.0323 54.5,95.5C 49.5019,97.3207 48.3352,100.654 51,105.5C 52.517,107.24 54.017,108.906 55.5,110.5C 56.8333,113.5 56.8333,116.5 55.5,119.5C 53.915,116.1 52.7483,112.433 52,108.5C 50.3005,107.594 48.4672,107.261 46.5,107.5C 46.067,104.715 44.7337,102.381 42.5,100.5C 41.5344,98.604 41.2011,96.604 41.5,94.5C 42.6418,92.6263 43.9752,90.793 45.5,89C 46.7932,88.51 48.1266,88.3433 49.5,88.5 Z"/></g>
<g><path style="opacity:1" fill="#8d8987" d="M 95.5,93.5 C 93.5648,94.1495 91.5648,94.4828 89.5,94.5C 88.1529,95.1712 86.9862,95.1712 86,94.5C 83.9208,97.4832 83.0875,100.817 83.5,104.5C 82.5592,106.05 81.8925,107.716 81.5,109.5C 80.8333,109.833 80.1667,110.167 79.5,110.5C 77.5829,109.884 76.4162,108.55 76,106.5C 75.6667,106.833 75.3333,107.167 75,107.5C 74.0922,105.561 72.5922,104.561 70.5,104.5C 70.5,104.167 70.5,103.833 70.5,103.5C 71.1667,103.167 71.8333,102.833 72.5,102.5C 73.1955,98.7685 73.8622,94.9352 74.5,91C 73.944,90.6174 73.6107,90.1174 73.5,89.5C 75.5648,89.5172 77.5648,89.8505 79.5,90.5C 79.3893,91.1174 79.056,91.6174 78.5,92C 84.6853,94.3932 87.352,92.2266 86.5,85.5C 88.9013,86.0488 91.2346,86.8822 93.5,88C 94.8613,89.5843 95.528,91.4176 95.5,93.5 Z"/></g>
<g><path style="opacity:1" fill="#0f1012" d="M 71.5,80.5 C 71.8333,80.5 72.1667,80.5 72.5,80.5C 71.297,87.841 71.297,95.1743 72.5,102.5C 71.8333,102.833 71.1667,103.167 70.5,103.5C 68.5891,103.426 67.4224,102.426 67,100.5C 66.6667,103.833 66.3333,107.167 66,110.5C 65.4782,107.719 64.3115,105.385 62.5,103.5C 62.5,102.833 62.5,102.167 62.5,101.5C 62.7366,98.3527 63.5699,95.3527 65,92.5C 67.7121,89.0637 69.8788,85.397 71.5,81.5C 71.5,81.1667 71.5,80.8333 71.5,80.5 Z"/></g>
<g><path style="opacity:1" fill="#0c100c" d="M 21.5,98.5 C 21.5,99.1667 21.5,99.8333 21.5,100.5C 19.8516,102.456 19.1849,104.789 19.5,107.5C 16.8333,107.5 14.1667,107.5 11.5,107.5C 11.2964,105.315 10.6298,103.315 9.5,101.5C 11.0188,100.59 12.6854,99.7568 14.5,99C 12.4311,98.6758 12.0977,97.8425 13.5,96.5C 11.0602,95.6641 9.72682,93.9975 9.5,91.5C 11.4672,91.7394 13.3005,91.4061 15,90.5C 16.53,91.9202 18.3633,92.9202 20.5,93.5C 19.1667,94.1667 17.8333,94.8333 16.5,95.5C 17.7277,97.321 19.3944,98.321 21.5,98.5 Z"/></g>
<g><path style="opacity:1" fill="#a1a5ab" d="M 44.5,82.5 C 43.9868,87.4295 42.3201,92.0962 39.5,96.5C 39.321,98.6056 38.321,100.272 36.5,101.5C 32.4587,100.907 28.7921,99.5735 25.5,97.5C 24.3087,102.118 25.9754,104.618 30.5,105C 32.0488,106.214 33.2155,107.714 34,109.5C 35.4139,108.587 36.9139,108.587 38.5,109.5C 38.4431,110.609 38.1098,111.609 37.5,112.5C 34.8685,111.625 31.8685,110.458 28.5,109C 27.2381,106.724 25.5714,104.891 23.5,103.5C 23.0679,102.29 22.4013,101.29 21.5,100.5C 21.5,99.8333 21.5,99.1667 21.5,98.5C 21.1936,95.6146 21.5269,92.9479 22.5,90.5C 26.1323,92.3059 29.6323,94.3059 33,96.5C 34.4768,95.556 35.4768,94.2226 36,92.5C 36.8928,93.7112 37.7261,93.7112 38.5,92.5C 39.8772,89.5964 40.8772,86.5964 41.5,83.5C 42.391,82.8902 43.391,82.5569 44.5,82.5 Z"/></g>
<g><path style="opacity:1" fill="#0a1106" d="M 138.5,89.5 C 138.5,96.1667 138.5,102.833 138.5,109.5C 136.352,109.389 136.019,110.056 137.5,111.5C 135.862,112.705 135.529,114.038 136.5,115.5C 135.624,116.251 134.624,116.751 133.5,117C 133.833,117.333 134.167,117.667 134.5,118C 132.934,118.3 131.601,117.8 130.5,116.5C 131.089,113.215 132.256,112.882 134,115.5C 134.167,115.167 134.333,114.833 134.5,114.5C 132.571,112.94 131.238,110.94 130.5,108.5C 131.628,107.738 132.795,107.071 134,106.5C 133.782,104.413 133.949,102.413 134.5,100.5C 135.609,101.59 136.609,101.59 137.5,100.5C 136.372,99.7379 135.205,99.0712 134,98.5C 133.167,99.5 132.333,100.5 131.5,101.5C 130.476,100.147 129.143,99.4802 127.5,99.5C 128.568,98.5655 129.901,98.2322 131.5,98.5C 132.449,96.2627 133.116,93.9294 133.5,91.5C 135.554,91.6347 137.221,90.968 138.5,89.5 Z"/></g>
<g><path style="opacity:1" fill="#98a6b6" d="M 55.5,96.5 C 58.0323,97.9132 60.3657,99.5799 62.5,101.5C 62.5,102.167 62.5,102.833 62.5,103.5C 62.5,104.167 62.5,104.833 62.5,105.5C 62.5,107.167 62.5,108.833 62.5,110.5C 59.7977,106.088 57.4644,101.421 55.5,96.5 Z"/></g>
<g><path style="opacity:1" fill="#858181" d="M 95.5,93.5 C 95.3505,94.552 95.5172,95.552 96,96.5C 96.6667,97.8333 97.3333,97.8333 98,96.5C 100.88,100.623 102.214,105.29 102,110.5C 102.77,111.598 103.603,111.598 104.5,110.5C 102.912,114.829 103.579,118.829 106.5,122.5C 107.325,123.386 108.325,123.719 109.5,123.5C 109.795,125.735 109.461,127.735 108.5,129.5C 108.5,127.833 108.5,126.167 108.5,124.5C 106.5,123.833 104.5,123.167 102.5,122.5C 103.138,125.763 103.138,128.929 102.5,132C 103.624,132.249 104.624,132.749 105.5,133.5C 103.441,134.951 102.441,136.951 102.5,139.5C 100.5,139.5 98.5,139.5 96.5,139.5C 97.4137,136.272 97.7471,132.939 97.5,129.5C 97.5,127.167 97.5,124.833 97.5,122.5C 97.7086,121.078 98.2086,119.745 99,118.5C 99.5556,120.595 100.056,120.762 100.5,119C 99.9507,115.429 99.6173,112.596 99.5,110.5C 96.8732,109.924 95.3732,111.258 95,114.5C 94.6667,113.167 94.3333,111.833 94,110.5C 93.5814,111.672 92.9147,112.672 92,113.5C 91.8621,111.568 92.3621,109.734 93.5,108C 91.9425,104.887 90.1091,104.72 88,107.5C 85.6308,106.073 85.1308,104.239 86.5,102C 87.7425,101.689 88.7425,102.189 89.5,103.5C 90.6435,100.502 90.6435,97.5023 89.5,94.5C 91.5648,94.4828 93.5648,94.1495 95.5,93.5 Z"/></g>
<g><path style="opacity:1" fill="#b8bbbc" d="M 41.5,94.5 C 41.2011,96.604 41.5344,98.604 42.5,100.5C 44.7337,102.381 46.067,104.715 46.5,107.5C 45.2794,108.028 44.1127,108.695 43,109.5C 41.9767,105.667 40.8101,105.667 39.5,109.5C 39.1667,109.5 38.8333,109.5 38.5,109.5C 36.9139,108.587 35.4139,108.587 34,109.5C 33.2155,107.714 32.0488,106.214 30.5,105C 25.9754,104.618 24.3087,102.118 25.5,97.5C 28.7921,99.5735 32.4587,100.907 36.5,101.5C 38.321,100.272 39.321,98.6056 39.5,96.5C 40.1667,95.8333 40.8333,95.1667 41.5,94.5 Z"/></g>
<g><path style="opacity:1" fill="#a8a9aa" d="M 70.5,104.5 C 72.5922,104.561 74.0922,105.561 75,107.5C 75.3333,107.167 75.6667,106.833 76,106.5C 76.4162,108.55 77.5829,109.884 79.5,110.5C 79.5,113.167 79.5,115.833 79.5,118.5C 79.5,119.833 79.5,121.167 79.5,122.5C 76.1997,123.866 75.1997,122.866 76.5,119.5C 74.777,117.132 74.1103,114.466 74.5,111.5C 72.6096,111.297 71.1096,111.963 70,113.5C 68.3252,110.616 68.4919,107.616 70.5,104.5 Z"/></g>
<g><path style="opacity:1" fill="#1a2d10" d="M 127.5,100.5 C 129.256,101.552 129.923,103.219 129.5,105.5C 128.209,105.263 127.209,105.596 126.5,106.5C 125.596,107.209 125.263,108.209 125.5,109.5C 124.5,109.5 123.5,109.5 122.5,109.5C 122.859,111.766 122.192,113.599 120.5,115C 120.833,115.333 121.167,115.667 121.5,116C 120.167,116.667 118.833,116.667 117.5,116C 118.428,115.612 119.095,114.945 119.5,114C 117.017,109.816 117.351,105.983 120.5,102.5C 120.56,103.043 120.893,103.376 121.5,103.5C 123.253,101.957 125.253,100.957 127.5,100.5 Z"/></g>
<g><path style="opacity:1" fill="#d9dcde" d="M 54.5,95.5 C 55.1667,95.5 55.5,95.8333 55.5,96.5C 57.4644,101.421 59.7977,106.088 62.5,110.5C 64.669,114.688 65.0023,119.022 63.5,123.5C 62.5178,122.859 61.5178,122.193 60.5,121.5C 59.3854,117.449 57.7187,113.783 55.5,110.5C 54.017,108.906 52.517,107.24 51,105.5C 48.3352,100.654 49.5019,97.3207 54.5,95.5 Z"/></g>
<g><path style="opacity:1" fill="#191918" d="M 81.5,109.5 C 82.4767,112.287 82.81,115.287 82.5,118.5C 81.5,118.5 80.5,118.5 79.5,118.5C 79.5,115.833 79.5,113.167 79.5,110.5C 80.1667,110.167 80.8333,109.833 81.5,109.5 Z"/></g>
<g><path style="opacity:1" fill="#7a726d" d="M 89.5,94.5 C 90.6435,97.5023 90.6435,100.502 89.5,103.5C 88.7425,102.189 87.7425,101.689 86.5,102C 85.1308,104.239 85.6308,106.073 88,107.5C 90.1091,104.72 91.9425,104.887 93.5,108C 92.3621,109.734 91.8621,111.568 92,113.5C 92.9147,112.672 93.5814,111.672 94,110.5C 94.3333,111.833 94.6667,113.167 95,114.5C 95.3732,111.258 96.8732,109.924 99.5,110.5C 98.0242,112.769 96.5242,115.102 95,117.5C 92.928,114.846 91.2613,115.18 90,118.5C 88.4301,117.386 87.0968,116.053 86,114.5C 85.8511,110.867 85.0177,107.534 83.5,104.5C 83.0875,100.817 83.9208,97.4832 86,94.5C 86.9862,95.1712 88.1529,95.1712 89.5,94.5 Z"/></g>
<g><path style="opacity:1" fill="#303526" d="M -0.5,100.5 C 3.35673,101.078 6.0234,103.078 7.5,106.5C 6.65608,110.099 6.32274,113.766 6.5,117.5C 6.5,118.833 6.5,120.167 6.5,121.5C 10.1667,121.5 13.8333,121.5 17.5,121.5C 17.5,121.833 17.5,122.167 17.5,122.5C 15.8333,122.5 14.1667,122.5 12.5,122.5C 8.15777,122.261 3.82444,121.927 -0.5,121.5C -0.5,121.167 -0.5,120.833 -0.5,120.5C 1.5,120.5 3.5,120.5 5.5,120.5C 5.66568,116.154 5.49902,111.821 5,107.5C 3.1852,106.756 1.35187,106.089 -0.5,105.5C -0.5,103.833 -0.5,102.167 -0.5,100.5 Z"/></g>
<g><path style="opacity:1" fill="#1e221f" d="M 21.5,100.5 C 22.4013,101.29 23.0679,102.29 23.5,103.5C 25.5826,108.573 27.5826,113.739 29.5,119C 29.2568,119.902 28.9234,120.735 28.5,121.5C 27.8826,121.611 27.3826,121.944 27,122.5C 26.5006,128.157 26.3339,133.824 26.5,139.5C 26.1667,139.5 25.8333,139.5 25.5,139.5C 25.2871,132.826 24.9538,126.159 24.5,119.5C 22.0347,119.767 19.7014,120.434 17.5,121.5C 17.6399,119.876 16.9733,118.71 15.5,118C 12.5184,117.502 9.51838,117.335 6.5,117.5C 6.32274,113.766 6.65608,110.099 7.5,106.5C 7.07729,104.219 7.74395,102.552 9.5,101.5C 10.6298,103.315 11.2964,105.315 11.5,107.5C 14.1667,107.5 16.8333,107.5 19.5,107.5C 19.1849,104.789 19.8516,102.456 21.5,100.5 Z"/></g>
<g><path style="opacity:1" fill="#a4a4a2" d="M 46.5,107.5 C 48.4672,107.261 50.3005,107.594 52,108.5C 52.7483,112.433 53.915,116.1 55.5,119.5C 56.4601,126.078 56.7934,132.745 56.5,139.5C 55.5,139.5 54.5,139.5 53.5,139.5C 53.6659,134.489 53.4993,129.489 53,124.5C 52.1667,123.667 51.3333,122.833 50.5,122C 52.4054,121.174 52.7388,120.007 51.5,118.5C 50.8333,118.833 50.1667,119.167 49.5,119.5C 48.3044,119.154 48.3044,118.654 49.5,118C 48.5,117.333 47.5,117.333 46.5,118C 46.201,119.32 46.0343,120.82 46,122.5C 45.1687,118.828 43.3354,115.828 40.5,113.5C 42.1472,111.512 41.8139,110.179 39.5,109.5C 40.8101,105.667 41.9767,105.667 43,109.5C 44.1127,108.695 45.2794,108.028 46.5,107.5 Z"/></g>
<g><path style="opacity:1" fill="#222121" d="M 70.5,103.5 C 70.5,103.833 70.5,104.167 70.5,104.5C 69.5041,104.414 68.6708,104.748 68,105.5C 67.6274,112.98 68.4608,120.314 70.5,127.5C 70.631,128.239 70.4643,128.906 70,129.5C 69.7398,127.382 68.7398,125.716 67,124.5C 66.8227,120.644 66.3227,116.977 65.5,113.5C 64.4885,110.748 63.4885,108.081 62.5,105.5C 62.5,104.833 62.5,104.167 62.5,103.5C 64.3115,105.385 65.4782,107.719 66,110.5C 66.3333,107.167 66.6667,103.833 67,100.5C 67.4224,102.426 68.5891,103.426 70.5,103.5 Z"/></g>
<g><path style="opacity:1" fill="#11120d" d="M -0.5,105.5 C 1.35187,106.089 3.1852,106.756 5,107.5C 5.49902,111.821 5.66568,116.154 5.5,120.5C 3.5,120.5 1.5,120.5 -0.5,120.5C -0.5,115.5 -0.5,110.5 -0.5,105.5 Z"/></g>
<g><path style="opacity:1" fill="#313132" d="M 109.5,98.5 C 109.599,101.237 109.265,103.904 108.5,106.5C 109.933,108.558 110.6,110.892 110.5,113.5C 110.5,115.167 110.5,116.833 110.5,118.5C 110.371,120.216 110.038,121.883 109.5,123.5C 108.325,123.719 107.325,123.386 106.5,122.5C 103.579,118.829 102.912,114.829 104.5,110.5C 105.399,107.605 106.733,104.938 108.5,102.5C 108.232,100.901 108.566,99.5676 109.5,98.5 Z"/></g>
<g><path style="opacity:1" fill="#919293" d="M 23.5,103.5 C 25.5714,104.891 27.2381,106.724 28.5,109C 31.8685,110.458 34.8685,111.625 37.5,112.5C 37.0183,113.416 36.685,114.416 36.5,115.5C 37.4587,117.75 38.1253,120.084 38.5,122.5C 40.2643,125.183 41.931,128.016 43.5,131C 42.8681,133.415 41.8681,135.582 40.5,137.5C 38.4284,131.432 37.0951,125.098 36.5,118.5C 34.8007,118.527 33.4674,119.194 32.5,120.5C 31.7784,120.082 31.2784,119.416 31,118.5C 30.7645,120.119 29.9311,121.119 28.5,121.5C 28.9234,120.735 29.2568,119.902 29.5,119C 27.5826,113.739 25.5826,108.573 23.5,103.5 Z"/></g>
<g><path style="opacity:1" fill="#10180a" d="M 120.5,102.5 C 117.351,105.983 117.017,109.816 119.5,114C 119.095,114.945 118.428,115.612 117.5,116C 118.833,116.667 120.167,116.667 121.5,116C 121.167,115.667 120.833,115.333 120.5,115C 122.192,113.599 122.859,111.766 122.5,109.5C 123.5,109.5 124.5,109.5 125.5,109.5C 125.263,108.209 125.596,107.209 126.5,106.5C 127.31,110.044 128.31,113.544 129.5,117C 127.875,117.853 127.542,118.853 128.5,120C 128,120.5 127.5,121 127,121.5C 124.843,119.282 122.343,118.115 119.5,118C 118.594,119.699 118.261,121.533 118.5,123.5C 117.883,123.389 117.383,123.056 117,122.5C 116.013,119.303 116.513,116.47 118.5,114C 116.433,113.464 114.599,113.964 113,115.5C 112.292,114.619 111.458,113.953 110.5,113.5C 110.6,110.892 109.933,108.558 108.5,106.5C 108.833,106.5 109.167,106.5 109.5,106.5C 110.833,106.5 112.167,106.5 113.5,106.5C 113.5,108.5 113.5,110.5 113.5,112.5C 114.5,112.5 115.5,112.5 116.5,112.5C 116.888,107.754 116.888,103.088 116.5,98.5C 118.5,95.8333 120.833,93.5 123.5,91.5C 124.281,92.7287 124.781,94.062 125,95.5C 128.018,89.1951 129.185,89.1951 128.5,95.5C 125.497,96.0851 122.497,96.7518 119.5,97.5C 118.288,99.4284 118.621,101.095 120.5,102.5 Z"/></g>
<g><path style="opacity:1" fill="#685e55" d="M 83.5,104.5 C 85.0177,107.534 85.8511,110.867 86,114.5C 87.0968,116.053 88.4301,117.386 90,118.5C 91.2613,115.18 92.928,114.846 95,117.5C 96.5242,115.102 98.0242,112.769 99.5,110.5C 99.6173,112.596 99.9507,115.429 100.5,119C 100.056,120.762 99.5556,120.595 99,118.5C 98.2086,119.745 97.7086,121.078 97.5,122.5C 93.9192,124.913 91.2525,128.079 89.5,132C 87.8309,133.669 85.8309,134.502 83.5,134.5C 82.6373,132.579 81.9707,130.579 81.5,128.5C 81.405,126.214 80.7384,124.214 79.5,122.5C 79.5,121.167 79.5,119.833 79.5,118.5C 80.5,118.5 81.5,118.5 82.5,118.5C 82.81,115.287 82.4767,112.287 81.5,109.5C 81.8925,107.716 82.5592,106.05 83.5,104.5 Z"/></g>
<g><path style="opacity:1" fill="#5e5f5d" d="M 6.5,117.5 C 9.51838,117.335 12.5184,117.502 15.5,118C 16.9733,118.71 17.6399,119.876 17.5,121.5C 13.8333,121.5 10.1667,121.5 6.5,121.5C 6.5,120.167 6.5,118.833 6.5,117.5 Z"/></g>
<g><path style="opacity:1" fill="#0d1407" d="M 130.5,116.5 C 130.722,119.39 130.055,122.057 128.5,124.5C 130.774,128.388 129.941,129.055 126,126.5C 125.316,125.216 125.483,124.049 126.5,123C 124.833,122.333 123.167,122.333 121.5,123C 124.602,124.614 124.936,126.447 122.5,128.5C 120.009,128.091 118.009,126.924 116.5,125C 117.416,124.722 118.082,124.222 118.5,123.5C 118.261,121.533 118.594,119.699 119.5,118C 122.343,118.115 124.843,119.282 127,121.5C 127.5,121 128,120.5 128.5,120C 127.542,118.853 127.875,117.853 129.5,117C 128.31,113.544 127.31,110.044 126.5,106.5C 127.209,105.596 128.209,105.263 129.5,105.5C 129.923,103.219 129.256,101.552 127.5,100.5C 127.5,100.167 127.5,99.8333 127.5,99.5C 129.143,99.4802 130.476,100.147 131.5,101.5C 132.333,100.5 133.167,99.5 134,98.5C 135.205,99.0712 136.372,99.7379 137.5,100.5C 136.609,101.59 135.609,101.59 134.5,100.5C 133.949,102.413 133.782,104.413 134,106.5C 132.795,107.071 131.628,107.738 130.5,108.5C 131.238,110.94 132.571,112.94 134.5,114.5C 134.333,114.833 134.167,115.167 134,115.5C 132.256,112.882 131.089,113.215 130.5,116.5 Z"/></g>
<g><path style="opacity:1" fill="#070904" d="M 138.5,133.5 C 138.5,135.5 138.5,137.5 138.5,139.5C 128.5,139.5 118.5,139.5 108.5,139.5C 108.5,136.167 108.5,132.833 108.5,129.5C 109.461,127.735 109.795,125.735 109.5,123.5C 110.038,121.883 110.371,120.216 110.5,118.5C 115.126,117.68 116.459,119.68 114.5,124.5C 116.571,126.907 118.238,129.573 119.5,132.5C 121.396,133.466 123.396,133.799 125.5,133.5C 125.215,131.712 125.548,130.045 126.5,128.5C 127.287,129.242 127.953,130.075 128.5,131C 132.157,131.05 135.49,131.883 138.5,133.5 Z"/></g>
<g><path style="opacity:1" fill="#92a0b4" d="M 32.5,120.5 C 32.7513,126.892 32.418,133.225 31.5,139.5C 29.8333,139.5 28.1667,139.5 26.5,139.5C 26.3339,133.824 26.5006,128.157 27,122.5C 27.3826,121.944 27.8826,121.611 28.5,121.5C 29.9311,121.119 30.7645,120.119 31,118.5C 31.2784,119.416 31.7784,120.082 32.5,120.5 Z"/></g>
<g><path style="opacity:1" fill="#736f68" d="M 38.5,109.5 C 38.8333,109.5 39.1667,109.5 39.5,109.5C 41.8139,110.179 42.1472,111.512 40.5,113.5C 43.3354,115.828 45.1687,118.828 46,122.5C 46.0343,120.82 46.201,119.32 46.5,118C 47.5,117.333 48.5,117.333 49.5,118C 48.3044,118.654 48.3044,119.154 49.5,119.5C 50.1667,119.167 50.8333,118.833 51.5,118.5C 52.7388,120.007 52.4054,121.174 50.5,122C 51.3333,122.833 52.1667,123.667 53,124.5C 53.4993,129.489 53.6659,134.489 53.5,139.5C 49.1667,139.5 44.8333,139.5 40.5,139.5C 40.5,138.833 40.5,138.167 40.5,137.5C 41.8681,135.582 42.8681,133.415 43.5,131C 41.931,128.016 40.2643,125.183 38.5,122.5C 38.1253,120.084 37.4587,117.75 36.5,115.5C 36.685,114.416 37.0183,113.416 37.5,112.5C 38.1098,111.609 38.4431,110.609 38.5,109.5 Z"/></g>
<g><path style="opacity:1" fill="#8f9091" d="M 70.5,104.5 C 68.4919,107.616 68.3252,110.616 70,113.5C 71.1096,111.963 72.6096,111.297 74.5,111.5C 74.1103,114.466 74.777,117.132 76.5,119.5C 75.1997,122.866 76.1997,123.866 79.5,122.5C 80.7384,124.214 81.405,126.214 81.5,128.5C 80.8333,128.833 80.1667,129.167 79.5,129.5C 78.6886,125.722 77.6886,125.889 76.5,130C 76.8361,131.03 77.5028,131.53 78.5,131.5C 78.5198,133.143 77.8532,134.476 76.5,135.5C 77.5487,137.216 78.882,138.549 80.5,139.5C 79.5,139.5 78.5,139.5 77.5,139.5C 76.2147,138.215 74.8814,136.881 73.5,135.5C 72.7908,132.616 71.7908,129.949 70.5,127.5C 68.4608,120.314 67.6274,112.98 68,105.5C 68.6708,104.748 69.5041,104.414 70.5,104.5 Z"/></g>
<g><path style="opacity:1" fill="#2c4416" d="M -0.5,121.5 C 3.82444,121.927 8.15777,122.261 12.5,122.5C 12.5,124.5 12.5,126.5 12.5,128.5C 9.75502,128.373 7.75502,129.54 6.5,132C 4.19018,132.497 1.85684,132.663 -0.5,132.5C -0.5,128.833 -0.5,125.167 -0.5,121.5 Z"/></g>
<g><path style="opacity:1" fill="#b2b5b7" d="M 40.5,137.5 C 40.5,138.167 40.5,138.833 40.5,139.5C 37.5,139.5 34.5,139.5 31.5,139.5C 32.418,133.225 32.7513,126.892 32.5,120.5C 33.4674,119.194 34.8007,118.527 36.5,118.5C 37.0951,125.098 38.4284,131.432 40.5,137.5 Z"/></g>
<g><path style="opacity:1" fill="#0d1009" d="M 138.5,109.5 C 138.5,117.5 138.5,125.5 138.5,133.5C 135.49,131.883 132.157,131.05 128.5,131C 127.953,130.075 127.287,129.242 126.5,128.5C 125.548,130.045 125.215,131.712 125.5,133.5C 123.396,133.799 121.396,133.466 119.5,132.5C 118.238,129.573 116.571,126.907 114.5,124.5C 116.459,119.68 115.126,117.68 110.5,118.5C 110.5,116.833 110.5,115.167 110.5,113.5C 111.458,113.953 112.292,114.619 113,115.5C 114.599,113.964 116.433,113.464 118.5,114C 116.513,116.47 116.013,119.303 117,122.5C 117.383,123.056 117.883,123.389 118.5,123.5C 118.082,124.222 117.416,124.722 116.5,125C 118.009,126.924 120.009,128.091 122.5,128.5C 124.936,126.447 124.602,124.614 121.5,123C 123.167,122.333 124.833,122.333 126.5,123C 125.483,124.049 125.316,125.216 126,126.5C 129.941,129.055 130.774,128.388 128.5,124.5C 130.055,122.057 130.722,119.39 130.5,116.5C 131.601,117.8 132.934,118.3 134.5,118C 134.167,117.667 133.833,117.333 133.5,117C 134.624,116.751 135.624,116.251 136.5,115.5C 135.529,114.038 135.862,112.705 137.5,111.5C 136.019,110.056 136.352,109.389 138.5,109.5 Z"/></g>
<g><path style="opacity:1" fill="#3c3f44" d="M 79.5,129.5 C 78.6618,129.842 78.3284,130.508 78.5,131.5C 77.5028,131.53 76.8361,131.03 76.5,130C 77.6886,125.889 78.6886,125.722 79.5,129.5 Z"/></g>
<g><path style="opacity:1" fill="#a09285" d="M 97.5,122.5 C 97.5,124.833 97.5,127.167 97.5,129.5C 96.5768,128.697 95.5768,128.53 94.5,129C 90.5683,131.424 88.5683,134.924 88.5,139.5C 87.1667,139.5 85.8333,139.5 84.5,139.5C 84.634,137.708 84.3007,136.042 83.5,134.5C 85.8309,134.502 87.8309,133.669 89.5,132C 91.2525,128.079 93.9192,124.913 97.5,122.5 Z"/></g>
<g><path style="opacity:1" fill="#0b0e07" d="M 25.5,139.5 C 16.8333,139.5 8.16667,139.5 -0.5,139.5C -0.5,137.833 -0.5,136.167 -0.5,134.5C 2.86631,134.788 6.19964,134.954 9.5,135C 11.1066,133.951 11.7733,132.451 11.5,130.5C 13.1667,130.5 14.8333,130.5 16.5,130.5C 16.3433,129.127 16.51,127.793 17,126.5C 18,125.167 19,125.167 20,126.5C 21.1882,125.437 21.6882,124.103 21.5,122.5C 20.1667,122.5 18.8333,122.5 17.5,122.5C 17.5,122.167 17.5,121.833 17.5,121.5C 19.7014,120.434 22.0347,119.767 24.5,119.5C 24.9538,126.159 25.2871,132.826 25.5,139.5 Z"/></g>
<g><path style="opacity:1" fill="#868583" d="M 62.5,105.5 C 63.4885,108.081 64.4885,110.748 65.5,113.5C 65.3343,117.846 65.501,122.179 66,126.5C 69.5377,130.317 70.3711,134.65 68.5,139.5C 66.5,139.5 64.5,139.5 62.5,139.5C 63.2745,134.203 63.6079,128.87 63.5,123.5C 65.0023,119.022 64.669,114.688 62.5,110.5C 62.5,108.833 62.5,107.167 62.5,105.5 Z"/></g>
<g><path style="opacity:1" fill="#1a270f" d="M 12.5,122.5 C 14.1667,122.5 15.8333,122.5 17.5,122.5C 18.8333,122.5 20.1667,122.5 21.5,122.5C 21.6882,124.103 21.1882,125.437 20,126.5C 19,125.167 18,125.167 17,126.5C 16.51,127.793 16.3433,129.127 16.5,130.5C 14.8333,130.5 13.1667,130.5 11.5,130.5C 11.7733,132.451 11.1066,133.951 9.5,135C 6.19964,134.954 2.86631,134.788 -0.5,134.5C -0.5,133.833 -0.5,133.167 -0.5,132.5C 1.85684,132.663 4.19018,132.497 6.5,132C 7.75502,129.54 9.75502,128.373 12.5,128.5C 12.5,126.5 12.5,124.5 12.5,122.5 Z"/></g>
<g><path style="opacity:1" fill="#b8b9ba" d="M 81.5,128.5 C 81.9707,130.579 82.6373,132.579 83.5,134.5C 84.3007,136.042 84.634,137.708 84.5,139.5C 83.1667,139.5 81.8333,139.5 80.5,139.5C 78.882,138.549 77.5487,137.216 76.5,135.5C 77.8532,134.476 78.5198,133.143 78.5,131.5C 78.3284,130.508 78.6618,129.842 79.5,129.5C 80.1667,129.167 80.8333,128.833 81.5,128.5 Z"/></g>
<g><path style="opacity:1" fill="#5c564f" d="M 65.5,113.5 C 66.3227,116.977 66.8227,120.644 67,124.5C 68.7398,125.716 69.7398,127.382 70,129.5C 70.4643,128.906 70.631,128.239 70.5,127.5C 71.7908,129.949 72.7908,132.616 73.5,135.5C 74.8814,136.881 76.2147,138.215 77.5,139.5C 74.5,139.5 71.5,139.5 68.5,139.5C 70.3711,134.65 69.5377,130.317 66,126.5C 65.501,122.179 65.3343,117.846 65.5,113.5 Z"/></g>
<g><path style="opacity:1" fill="#654636" d="M 97.5,129.5 C 97.7471,132.939 97.4137,136.272 96.5,139.5C 93.8333,139.5 91.1667,139.5 88.5,139.5C 88.5683,134.924 90.5683,131.424 94.5,129C 95.5768,128.53 96.5768,128.697 97.5,129.5 Z"/></g>
<g><path style="opacity:1" fill="#dddedd" d="M 55.5,110.5 C 57.7187,113.783 59.3854,117.449 60.5,121.5C 61.5178,122.193 62.5178,122.859 63.5,123.5C 63.6079,128.87 63.2745,134.203 62.5,139.5C 60.5,139.5 58.5,139.5 56.5,139.5C 56.7934,132.745 56.4601,126.078 55.5,119.5C 56.8333,116.5 56.8333,113.5 55.5,110.5 Z"/></g>
<g><path style="opacity:1" fill="#c6c8c9" d="M 108.5,129.5 C 108.5,132.833 108.5,136.167 108.5,139.5C 106.5,139.5 104.5,139.5 102.5,139.5C 102.441,136.951 103.441,134.951 105.5,133.5C 104.624,132.749 103.624,132.249 102.5,132C 103.138,128.929 103.138,125.763 102.5,122.5C 104.5,123.167 106.5,123.833 108.5,124.5C 108.5,126.167 108.5,127.833 108.5,129.5 Z"/></g>
</svg>
