<?xml version="1.0" standalone="no"?>
<!DOCTYPE svg PUBLIC "-//W3C//DTD SVG 20010904//EN"
 "http://www.w3.org/TR/2001/REC-SVG-20010904/DTD/svg10.dtd">
<svg version="1.0" xmlns="http://www.w3.org/2000/svg"
 width="4764.000000pt" height="1138.000000pt" viewBox="0 0 4764.000000 1138.000000"
 preserveAspectRatio="xMidYMid meet">

<g transform="translate(0.000000,1138.000000) scale(0.100000,-0.100000)"
fill="#000000" stroke="none">
<path d="M39200 11036 c0 -22 -5 -24 -65 -31 -64 -6 -65 -7 -65 -36 0 -26 -4
-29 -30 -29 -27 0 -30 -3 -30 -30 0 -26 -3 -30 -29 -30 -28 0 -29 -2 -36 -59
-6 -55 -9 -60 -33 -63 -26 -3 -27 -6 -30 -65 -3 -62 -3 -63 -32 -63 l-30 0 0
-155 0 -155 -30 0 -30 0 0 -190 0 -190 24 0 c20 0 24 -6 30 -46 3 -26 6 -69 6
-95 0 -48 1 -49 30 -49 l30 0 0 -60 c0 -60 0 -60 29 -60 28 0 29 -2 36 -60 7
-58 8 -60 36 -60 25 0 29 -4 29 -29 0 -25 4 -30 28 -33 22 -2 28 -8 30 -35 l3
-33 60 0 c59 0 59 0 59 -30 0 -28 3 -30 35 -30 32 0 35 -3 35 -29 0 -26 3 -29
46 -35 26 -3 66 -6 90 -6 40 0 44 -2 44 -25 0 -25 0 -25 95 -25 94 0 95 0 95
24 0 22 5 25 59 31 55 6 60 9 63 33 2 22 9 28 36 30 28 3 32 7 32 33 0 25 4
29 29 29 27 0 29 2 35 60 6 54 9 60 30 60 22 0 24 6 31 65 6 59 9 65 29 65 20
0 24 7 30 46 3 26 6 82 6 125 0 76 1 79 24 79 20 0 24 6 30 46 8 60 8 273 0
342 -6 45 -10 52 -29 52 -22 0 -23 5 -30 119 l-7 120 -26 3 c-26 3 -27 6 -30
66 -3 61 -3 62 -32 62 -30 0 -30 0 -30 60 l0 60 -30 0 c-28 0 -30 3 -30 35 0
33 -2 35 -35 35 -32 0 -35 3 -35 29 0 28 -2 29 -60 36 -54 6 -60 9 -60 30 0
21 -6 24 -60 30 -55 6 -60 9 -60 31 l0 24 -155 0 -155 0 0 -24z"/>
<path d="M40883 11003 c-59 -4 -62 -5 -65 -31 -3 -25 -6 -27 -60 -30 -57 -3
-58 -4 -58 -32 0 -28 -3 -30 -35 -30 l-35 0 0 -60 0 -60 -30 0 -30 0 0 -65 0
-65 -30 0 -30 0 0 -340 0 -340 30 0 30 0 0 -65 0 -65 30 0 c29 0 29 -1 32 -62
3 -60 4 -63 31 -66 23 -3 27 -8 27 -33 0 -25 4 -29 29 -29 28 0 29 -2 36 -60
7 -58 8 -60 36 -60 26 0 29 -4 29 -30 0 -27 3 -30 30 -30 28 0 30 -3 30 -35
l0 -35 60 0 c59 0 60 0 60 -29 0 -28 2 -29 65 -36 60 -6 65 -8 65 -31 0 -23 3
-24 65 -24 62 0 65 1 65 24 0 22 5 25 60 31 58 7 60 8 60 36 0 26 4 29 30 29
27 0 30 3 30 30 0 27 3 30 29 30 26 0 30 4 33 33 2 26 8 33 29 35 30 3 39 33
39 130 0 51 0 52 30 52 l30 0 0 95 0 95 30 0 30 0 0 310 0 310 -30 0 -30 0 0
65 0 65 -29 0 c-26 0 -30 4 -33 33 -2 26 -8 33 -29 35 -24 3 -27 8 -34 57 -6
49 -9 54 -33 57 -22 2 -28 9 -30 36 l-3 32 -60 0 c-59 0 -59 0 -59 29 0 26 -4
30 -32 33 -27 2 -34 8 -36 29 -3 25 -5 26 -94 33 -89 6 -151 6 -275 -1z"/>
<path d="M42310 9976 c0 -19 -6 -24 -37 -30 -21 -3 -62 -6 -90 -6 -52 0 -53 0
-53 -30 0 -27 -3 -30 -30 -30 -27 0 -30 -3 -30 -30 0 -26 -3 -30 -29 -30 -28
0 -29 -2 -36 -65 -6 -59 -9 -65 -29 -65 -20 0 -24 -7 -30 -46 -8 -60 -8 -333
0 -401 6 -46 10 -53 29 -53 19 0 23 -7 29 -46 3 -26 6 -66 6 -90 0 -39 2 -43
28 -46 26 -3 27 -6 30 -65 3 -62 3 -63 32 -63 26 0 30 -4 30 -29 0 -27 2 -29
60 -35 54 -6 60 -9 60 -30 0 -22 6 -24 65 -31 59 -6 65 -9 65 -30 0 -21 5 -23
81 -27 45 -3 115 -3 155 0 69 4 74 6 74 27 0 20 6 23 65 30 59 6 65 9 65 30 0
21 6 24 60 30 58 7 60 8 60 36 0 25 4 29 29 29 26 0 30 4 33 33 2 26 8 33 29
35 22 3 28 9 33 40 8 49 8 347 0 406 -6 39 -10 46 -29 46 -21 0 -24 6 -30 59
-6 55 -9 60 -33 63 -22 2 -28 9 -30 36 -3 28 -7 32 -33 32 -29 0 -29 0 -29 60
l0 60 -30 0 c-27 0 -30 3 -30 29 0 26 -4 30 -32 33 -29 3 -33 7 -36 36 l-3 32
-60 0 c-58 0 -59 0 -59 29 0 27 -2 29 -60 35 -55 6 -60 9 -60 31 0 25 -1 25
-100 25 -99 0 -100 0 -100 -24z"/>
<path d="M37940 9410 l0 -30 -60 0 -60 0 0 -60 c0 -59 0 -60 -29 -60 -28 0
-29 -2 -36 -65 -6 -60 -8 -65 -31 -65 l-24 0 0 -375 0 -375 24 0 c23 0 25 -5
31 -65 7 -63 8 -65 36 -65 29 0 29 -1 29 -60 0 -60 0 -60 29 -60 26 0 30 -4
33 -32 2 -27 8 -34 29 -36 24 -3 27 -8 34 -57 6 -49 9 -54 33 -57 22 -2 28 -9
30 -35 l3 -33 60 0 c59 0 59 0 59 -29 0 -26 4 -30 33 -33 26 -2 33 -8 35 -29
3 -25 5 -26 95 -33 51 -3 134 -3 185 0 l92 7 0 28 c0 26 4 29 30 29 27 0 30 3
30 30 0 30 0 30 59 30 l59 0 7 60 c7 58 8 60 36 60 26 0 29 3 29 35 0 32 2 35
30 35 l29 0 3 93 3 92 28 3 27 3 0 185 0 184 -30 0 -30 0 0 125 0 125 -30 0
-30 0 0 60 c0 59 0 60 -29 60 -28 0 -29 2 -36 65 -6 64 -7 65 -36 65 -26 0
-29 4 -29 30 0 27 -3 30 -30 30 -28 0 -30 3 -30 35 0 32 -2 35 -30 35 -27 0
-30 3 -30 30 0 28 -3 30 -35 30 -32 0 -35 2 -35 30 l0 30 -60 0 -60 0 0 30 0
30 -220 0 -220 0 0 -30z"/>
<path d="M10 5635 l0 -3555 1118 0 c1108 0 1339 5 1572 36 956 124 1765 636
2234 1413 255 421 413 899 483 1461 27 213 27 1077 0 1290 -87 694 -311 1265
-688 1750 -99 128 -309 343 -444 453 -368 302 -864 534 -1351 631 -355 70
-484 76 -1811 76 l-1113 0 0 -3555z m2311 2405 c191 -11 338 -37 486 -85 681
-224 1063 -827 1144 -1808 16 -200 6 -1024 -15 -1182 -45 -345 -126 -626 -254
-880 -255 -508 -681 -795 -1271 -855 -57 -5 -292 -10 -522 -10 l-419 0 0 2415
0 2415 343 0 c188 0 417 -5 508 -10z"/>
<path d="M17870 5635 l0 -3555 730 0 730 0 0 1270 0 1270 769 0 c785 0 912 4
1160 41 814 118 1438 499 1765 1076 133 236 215 488 257 793 17 123 18 505 1
636 -85 671 -409 1205 -952 1565 -119 79 -349 198 -489 254 -204 80 -500 149
-771 182 -130 15 -304 17 -1672 20 l-1528 4 0 -3556z m3020 2390 c256 -38 447
-131 611 -294 78 -79 138 -160 181 -246 136 -272 180 -612 117 -918 -92 -454
-373 -710 -869 -794 -79 -13 -221 -16 -847 -20 l-753 -5 0 1146 0 1146 733 0
c587 0 751 -3 827 -15z"/>
<path d="M40043 9063 c-27 -3 -33 -9 -33 -27 0 -22 -6 -24 -65 -31 -64 -6 -65
-7 -65 -36 0 -26 -4 -29 -30 -29 -27 0 -30 -3 -30 -30 0 -30 0 -30 -59 -30
l-60 0 -3 -32 c-3 -29 -7 -33 -35 -36 -29 -3 -33 -7 -33 -33 0 -26 -3 -29 -30
-29 -27 0 -30 -3 -30 -30 0 -26 -3 -30 -29 -30 -28 0 -29 -2 -36 -59 -6 -55
-9 -60 -33 -63 -22 -2 -28 -9 -30 -35 -3 -27 -8 -33 -26 -33 -20 0 -24 -6 -30
-46 -3 -26 -6 -66 -6 -90 0 -42 -1 -44 -30 -44 l-29 0 -3 -127 -3 -128 -27 -3
-28 -3 -2 -182 -3 -182 -27 -3 -26 -3 -7 -125 -7 -124 -29 0 -29 0 0 -90 0
-90 -30 0 -29 0 -3 -97 -3 -98 -27 -3 -28 -3 0 -310 0 -309 30 0 30 0 0 -60 0
-60 30 0 c28 0 30 -3 30 -35 0 -32 2 -35 30 -35 27 0 30 -3 30 -30 0 -27 3
-30 30 -30 27 0 30 -3 30 -30 0 -28 3 -30 35 -30 32 0 35 -3 35 -29 0 -28 2
-29 60 -36 54 -6 60 -9 60 -30 0 -19 6 -23 53 -29 28 -3 71 -6 95 -6 38 0 42
-2 42 -25 l0 -25 155 0 155 0 0 25 c0 23 4 25 43 25 23 0 66 3 95 6 45 6 52
10 52 29 0 19 7 23 46 29 26 3 66 6 90 6 42 0 44 1 44 30 0 28 3 30 35 30 32
0 35 2 35 30 0 29 1 29 63 32 59 3 62 4 65 30 3 25 7 28 63 34 57 6 59 8 59
35 0 26 4 29 30 29 27 0 30 3 30 30 l0 30 60 0 c60 0 60 0 60 29 0 27 3 30 38
33 32 3 37 7 40 29 3 23 9 27 49 33 25 3 65 6 89 6 42 0 44 1 44 30 l0 30 215
0 215 0 0 30 0 30 345 0 345 0 0 30 c0 29 1 29 63 32 59 3 62 4 65 30 3 24 8
27 63 33 57 7 59 8 59 36 0 26 3 29 35 29 32 0 35 2 35 30 0 27 3 30 30 30 27
0 30 3 30 30 0 27 3 30 30 30 28 0 30 3 30 35 0 32 3 35 29 35 28 0 29 2 36
60 6 54 9 60 30 60 19 0 23 7 29 46 3 26 6 69 6 95 0 48 1 49 30 49 l30 0 0
155 0 155 -30 0 c-29 0 -30 1 -30 49 0 26 -3 69 -6 95 -6 39 -10 46 -29 46
-21 0 -24 6 -30 60 -7 58 -8 60 -36 60 -26 0 -29 4 -29 30 0 27 -3 30 -30 30
-27 0 -30 3 -30 29 0 26 -4 30 -32 33 -29 3 -33 7 -36 36 l-3 32 -60 0 c-58 0
-59 0 -59 29 0 27 -2 29 -60 35 -55 6 -60 9 -60 31 0 19 -6 24 -32 27 -27 2
-34 8 -36 30 -3 24 -8 27 -63 33 -57 7 -59 8 -59 36 0 29 0 29 -60 29 l-60 0
0 30 c0 28 -3 30 -35 30 -32 0 -35 3 -35 29 0 28 -2 29 -59 36 -55 6 -60 9
-63 33 -2 22 -9 28 -35 30 -29 3 -33 7 -33 33 0 29 0 29 -60 29 l-60 0 0 30
c0 28 -3 30 -35 30 -32 0 -35 3 -35 29 0 28 -2 29 -60 36 -58 7 -60 8 -60 36
0 26 -3 29 -35 29 -32 0 -35 2 -35 30 l0 30 -60 0 -60 0 0 30 0 30 -90 0 -90
0 0 29 0 29 -125 7 c-121 7 -125 8 -125 30 0 19 -7 23 -52 29 -56 6 -611 6
-665 -1z"/>
<path d="M8515 7454 c-330 -25 -559 -73 -808 -170 -847 -330 -1367 -1073
-1489 -2129 -8 -70 -13 -235 -12 -450 0 -371 9 -472 64 -745 115 -574 393
-1078 775 -1407 368 -317 812 -500 1344 -553 153 -15 515 -12 666 5 459 53
835 197 1174 449 437 326 754 847 890 1461 79 356 102 878 56 1275 -81 695
-365 1287 -810 1682 -343 305 -792 500 -1296 563 -122 15 -456 27 -554 19z
m281 -1094 c555 -49 889 -481 979 -1270 22 -189 16 -687 -9 -850 -65 -407
-175 -681 -351 -868 -201 -216 -434 -302 -774 -289 -170 6 -265 28 -389 87
-105 50 -158 87 -248 172 -202 192 -318 471 -381 918 -25 180 -25 742 0 915
76 512 239 838 517 1033 122 86 266 136 440 152 47 4 90 8 95 9 6 0 60 -4 121
-9z"/>
<path d="M13845 7454 c-330 -33 -527 -85 -754 -199 -498 -249 -848 -682 -1055
-1307 -75 -224 -117 -418 -152 -698 -21 -172 -30 -691 -15 -890 40 -537 181
-1008 415 -1394 342 -562 833 -890 1446 -966 109 -13 401 -13 510 1 374 46
687 196 954 457 l88 87 -5 -240 c-8 -338 -37 -485 -133 -676 -160 -320 -447
-509 -847 -559 -141 -18 -433 -8 -559 19 -307 66 -585 220 -831 459 -59 58
-109 103 -110 101 -30 -36 -600 -806 -603 -814 -3 -6 26 -45 63 -87 303 -338
765 -576 1328 -687 213 -41 353 -54 585 -54 522 0 941 88 1347 283 596 286
981 781 1114 1433 50 246 49 185 49 3005 l0 2632 -635 0 c-598 0 -635 -1 -635
-17 0 -10 -11 -115 -25 -233 -14 -118 -25 -223 -25 -233 0 -13 -32 15 -97 83
-262 275 -541 417 -935 475 -105 15 -404 27 -483 19z m715 -1109 c301 -45 534
-194 689 -439 l31 -50 0 -1136 0 -1137 -39 -60 c-50 -78 -150 -184 -231 -245
-178 -135 -415 -196 -718 -185 -162 5 -268 30 -385 88 -132 65 -275 194 -367
329 -96 141 -182 361 -225 577 -67 329 -75 813 -19 1148 98 584 387 986 786
1091 138 36 319 44 478 19z"/>
<path d="M26035 7450 c-664 -56 -1188 -282 -1566 -677 -244 -255 -386 -578
-401 -908 l-3 -70 701 -3 701 -2 6 77 c14 170 96 325 221 422 63 49 197 113
286 136 85 22 322 31 417 16 354 -55 566 -283 612 -656 6 -49 11 -179 11 -287
l0 -198 -327 0 c-674 -1 -1018 -33 -1397 -130 -200 -51 -322 -96 -491 -180
-175 -88 -301 -177 -430 -305 -252 -252 -390 -563 -426 -960 -26 -295 22 -575
140 -820 213 -440 647 -760 1181 -873 303 -64 680 -61 960 9 258 64 532 223
737 426 57 57 105 103 107 103 2 0 7 -21 11 -46 11 -76 72 -289 106 -369 l31
-75 709 0 709 0 0 41 c0 25 -13 71 -34 118 -67 152 -125 378 -146 566 -6 55
-13 114 -17 130 -3 17 -8 685 -12 1485 -8 1590 -4 1496 -67 1743 -120 473
-465 870 -942 1081 -200 89 -460 159 -713 191 -149 19 -521 27 -674 15z m985
-3414 l0 -463 -51 -79 c-96 -147 -263 -287 -434 -365 -156 -71 -360 -106 -545
-96 -211 13 -340 65 -462 187 -134 133 -185 277 -174 490 10 208 65 352 184
481 112 121 229 192 407 248 167 53 238 59 678 60 l397 1 0 -464z"/>
<path d="M32230 7453 c-195 -15 -430 -65 -573 -122 -268 -107 -531 -290 -701
-490 -38 -45 -70 -80 -72 -78 -1 1 -12 126 -24 277 -12 151 -23 285 -26 298
l-4 22 -660 0 -660 0 0 -2640 0 -2640 705 0 705 0 0 1876 0 1876 56 86 c105
162 266 301 422 366 132 55 221 70 412 70 155 -1 186 -4 273 -27 142 -38 219
-79 302 -162 117 -116 180 -273 205 -505 6 -59 10 -750 10 -1837 l0 -1743 700
0 700 0 0 1843 c0 1808 1 1843 20 1885 32 70 122 202 183 268 105 114 271 211
432 254 151 40 379 37 550 -6 84 -22 212 -84 263 -129 92 -80 164 -219 204
-391 l22 -99 3 -1812 4 -1813 704 0 705 0 0 1738 c0 1092 -4 1797 -10 1897
-40 608 -192 1017 -489 1316 -160 161 -317 256 -541 329 -533 174 -1180 116
-1632 -146 -198 -114 -430 -320 -548 -486 -30 -43 -57 -77 -60 -78 -3 0 -16
24 -30 53 -83 174 -284 402 -452 511 -282 183 -686 271 -1098 239z"/>
<path d="M45500 6850 l0 -30 -90 0 -90 0 0 -29 c0 -29 -1 -30 -65 -36 -63 -7
-65 -8 -65 -36 0 -26 -4 -29 -30 -29 -27 0 -30 -3 -30 -30 0 -27 -3 -30 -30
-30 -27 0 -30 -3 -30 -29 0 -26 -4 -30 -32 -33 -27 -2 -34 -8 -36 -30 -3 -21
-9 -27 -30 -30 -22 -2 -28 -9 -30 -35 -3 -29 -7 -33 -33 -33 -26 0 -29 -3 -29
-30 0 -27 -3 -30 -30 -30 l-30 0 0 -90 0 -90 -30 0 -30 0 0 -255 0 -255 30 0
30 0 0 -60 0 -60 30 0 c26 0 30 -3 30 -29 0 -28 2 -29 65 -36 59 -6 65 -9 65
-29 0 -20 7 -24 46 -30 60 -8 348 -8 408 0 39 6 46 10 46 29 0 19 7 23 46 29
26 3 66 6 90 6 42 0 44 1 44 30 0 28 3 30 35 30 32 0 35 2 35 30 l0 30 60 0
60 0 0 30 c0 27 3 30 29 30 26 0 30 4 33 33 3 28 7 32 36 35 28 3 32 7 32 33
0 26 3 29 30 29 27 0 30 3 30 30 0 27 3 30 30 30 l30 0 0 95 0 95 30 0 30 0 0
155 0 155 -30 0 -30 0 0 95 0 95 -30 0 c-27 0 -30 3 -30 30 0 26 -3 30 -29 30
-28 0 -29 2 -36 59 l-7 59 -59 7 c-57 7 -59 8 -59 36 l0 29 -65 0 -65 0 0 30
0 30 -125 0 -125 0 0 -30z"/>
<path d="M43500 6660 l0 -30 -90 0 -90 0 0 -30 c0 -27 -3 -30 -29 -30 -26 0
-30 -4 -33 -32 -2 -28 -8 -34 -30 -36 -24 -3 -28 -8 -28 -33 0 -25 -4 -29 -29
-29 -28 0 -29 -2 -36 -60 -7 -58 -8 -60 -36 -60 -26 0 -29 -3 -29 -35 0 -32
-2 -35 -30 -35 -29 0 -30 -2 -30 -44 0 -24 -3 -64 -6 -90 -6 -39 -10 -46 -29
-46 -19 0 -23 -7 -29 -52 -8 -69 -8 -402 0 -462 6 -39 10 -46 30 -46 20 0 23
-6 29 -65 l7 -65 59 0 c59 0 59 0 59 -30 l0 -30 280 0 280 0 0 30 0 30 65 0
65 0 0 30 0 30 60 0 c60 0 60 0 60 29 0 26 4 30 33 33 27 2 33 8 35 31 3 23 8
27 33 27 27 0 29 3 29 35 0 32 2 35 30 35 27 0 30 3 30 30 0 27 3 30 30 30 29
0 30 1 30 49 0 26 3 69 6 95 6 40 10 46 30 46 l24 0 0 185 0 185 -24 0 c-20 0
-24 6 -30 46 -3 26 -6 69 -6 95 0 48 -1 49 -30 49 -28 0 -30 3 -30 35 0 32 -2
35 -30 35 -27 0 -30 3 -30 30 0 28 -3 30 -35 30 -32 0 -35 2 -35 30 l0 30 -90
0 -90 0 0 30 0 30 -160 0 -160 0 0 -30z"/>
<path d="M46570 5660 l0 -30 -65 0 -65 0 0 -30 c0 -27 -3 -30 -30 -30 -28 0
-30 -3 -30 -35 0 -32 -2 -35 -30 -35 l-30 0 0 -60 0 -60 -30 0 -30 0 0 -405 0
-405 30 0 30 0 0 -65 0 -65 30 0 c27 0 30 -3 30 -30 0 -27 3 -30 30 -30 27 0
30 -3 30 -30 0 -28 3 -30 35 -30 32 0 35 -3 35 -28 l0 -29 145 -7 c79 -4 192
-4 250 0 l105 7 0 28 c0 29 1 29 60 29 l60 0 0 30 c0 27 3 30 30 30 27 0 30 3
30 30 0 27 3 30 29 30 26 0 30 4 33 33 2 26 8 33 30 35 25 3 28 7 34 63 6 57
8 59 35 59 l29 0 0 95 0 95 30 0 30 0 0 250 0 250 -30 0 -30 0 0 60 0 60 -30
0 c-27 0 -30 3 -30 30 0 27 -3 30 -29 30 -26 0 -30 4 -33 33 -3 28 -7 32 -35
35 -29 3 -33 7 -33 33 0 29 0 29 -60 29 l-60 0 0 30 0 30 -250 0 -250 0 0 -30z"/>
<path d="M44573 5253 l-122 -4 -3 -27 c-3 -27 -3 -27 -95 -30 l-93 -3 0 -29 0
-30 -95 0 -95 0 0 -29 c0 -27 -2 -29 -60 -35 -55 -6 -60 -9 -60 -31 0 -21 -5
-24 -65 -30 -63 -7 -65 -8 -65 -36 0 -26 -3 -29 -35 -29 -32 0 -35 -2 -35 -30
l0 -30 -60 0 c-60 0 -60 0 -60 -30 0 -29 -1 -29 -62 -32 -60 -3 -63 -4 -66
-29 -3 -23 -9 -27 -49 -33 -25 -3 -65 -6 -89 -6 -42 0 -44 -1 -44 -30 l0 -30
-95 0 -95 0 0 -30 0 -30 -65 0 -65 0 0 -30 c0 -28 -1 -29 -57 -32 -55 -3 -58
-4 -61 -30 -3 -24 -8 -28 -33 -28 -27 0 -29 -3 -29 -35 0 -32 -2 -35 -30 -35
-27 0 -30 -3 -30 -30 0 -26 -3 -30 -29 -30 -29 0 -30 -1 -36 -65 -7 -59 -10
-65 -30 -65 -19 0 -23 -7 -29 -46 -8 -60 -8 -417 0 -466 5 -31 11 -38 29 -38
20 0 23 -6 30 -65 6 -64 7 -65 36 -65 25 0 29 -4 29 -29 0 -25 4 -30 28 -33
22 -2 28 -8 30 -35 3 -29 7 -33 33 -33 26 0 29 -3 29 -30 0 -27 3 -30 30 -30
27 0 30 -3 30 -29 0 -26 4 -30 33 -33 27 -2 33 -8 35 -30 3 -24 8 -28 33 -28
25 0 29 -4 29 -29 0 -29 1 -30 65 -36 63 -7 65 -8 65 -36 0 -29 1 -29 60 -29
l60 0 0 -30 c0 -30 1 -30 53 -30 93 0 127 -10 127 -35 0 -20 6 -23 65 -30 60
-6 65 -9 65 -30 0 -21 5 -24 65 -30 63 -7 65 -8 65 -36 l0 -29 90 0 90 0 0
-30 c0 -28 3 -30 35 -30 32 0 35 -3 35 -29 0 -28 2 -29 60 -36 58 -7 60 -8 60
-36 0 -26 3 -29 35 -29 32 0 35 -2 35 -30 0 -30 1 -30 54 -30 54 0 55 0 58
-32 3 -29 7 -33 34 -36 30 -3 32 -6 39 -57 6 -49 9 -54 33 -57 22 -2 28 -9 30
-36 3 -28 7 -32 33 -32 26 0 29 -3 29 -30 0 -27 3 -30 30 -30 l30 0 0 -60 0
-60 30 0 c28 0 30 -3 30 -35 0 -32 2 -35 30 -35 27 0 30 -3 30 -29 0 -26 4
-30 33 -33 26 -2 33 -8 35 -30 3 -21 9 -27 30 -30 22 -2 28 -9 30 -35 l3 -33
60 0 c59 0 59 0 59 -30 l0 -30 65 0 65 0 0 -30 c0 -29 1 -30 49 -30 26 0 69
-3 95 -6 40 -6 46 -10 46 -30 0 -23 4 -24 60 -24 56 0 60 1 60 24 0 21 6 24
53 30 28 3 85 6 125 6 l72 0 0 30 0 30 95 0 95 0 0 30 0 30 60 0 c60 0 60 0
60 29 0 26 4 30 33 33 28 3 32 7 35 36 3 28 7 32 33 32 29 0 29 0 29 60 l0 60
30 0 30 0 0 95 0 95 30 0 30 0 0 279 0 280 -27 3 -28 3 -2 625 c-1 344 -2 682
-2 753 l-1 127 -30 0 -30 0 0 60 c0 60 0 60 -29 60 -28 0 -29 2 -36 60 -7 58
-8 60 -36 60 -26 0 -29 4 -29 30 0 27 -3 30 -30 30 -27 0 -30 3 -30 30 0 27
-3 30 -30 30 -28 0 -30 3 -30 35 l0 35 -60 0 -60 0 0 30 c0 28 -3 30 -35 30
-32 0 -35 2 -35 30 0 27 -3 30 -30 30 -26 0 -30 3 -30 29 0 28 -2 29 -60 36
-58 7 -60 8 -60 36 l0 29 -65 0 -65 0 0 30 c0 30 -1 30 -52 30 -94 0 -128 10
-128 35 0 21 -5 22 -107 28 -101 7 -188 7 -460 0z"/>
<path d="M46853 3813 c-29 -4 -33 -8 -33 -34 0 -26 -3 -29 -30 -29 -27 0 -30
-3 -30 -30 0 -26 -3 -30 -29 -30 -28 0 -29 -2 -36 -60 -7 -58 -8 -60 -36 -60
l-29 0 0 -65 0 -65 -30 0 -30 0 0 -155 0 -155 -30 0 -30 0 0 -154 0 -155 28
-3 27 -3 3 -92 3 -93 29 0 c30 0 30 0 30 -59 l0 -60 33 -3 c26 -2 33 -8 35
-30 3 -25 7 -28 63 -34 57 -6 59 -8 59 -35 l0 -29 185 0 185 0 0 29 c0 27 2
29 59 35 56 6 60 9 63 34 2 22 9 28 36 30 l32 3 0 60 c0 58 0 59 29 59 28 0
29 2 36 65 6 59 9 65 29 65 20 0 24 7 30 46 3 26 6 66 6 90 0 39 2 43 28 46
l27 3 3 128 3 127 29 0 c30 0 30 1 30 55 0 54 0 55 -30 55 l-30 0 0 95 0 95
-29 0 c-28 0 -29 2 -36 65 -6 64 -7 65 -36 65 -26 0 -29 4 -29 30 0 27 -3 30
-30 30 -26 0 -30 3 -30 29 0 28 -2 29 -60 36 -54 6 -60 9 -60 30 0 19 -7 23
-46 29 -49 6 -306 6 -361 -1z"/>
</g>
</svg>
